<svg width="640" viewBox="0 0 640 463" fill="none" xmlns="http://www.w3.org/2000/svg">
<path d="M444.238 309.102C443.009 310.058 441.497 310.577 439.941 310.577C438.385 310.577 436.873 310.058 435.644 309.102C434.444 301.172 437.49 285.587 438.208 282.073L438.358 281.368H441.828C442.059 281.598 442.241 281.872 442.363 282.174C444.72 287.257 444.238 309.102 444.238 309.102Z" fill="#535F89"/>
<path opacity="0.1" d="M441.1 278.173V281.374H439.654V278.173C439.886 278.134 440.122 278.115 440.358 278.115C440.606 278.115 440.855 278.134 441.1 278.173Z" fill="black"/>
<path opacity="0.1" d="M442.339 282.189C441.728 282.515 441.045 282.681 440.353 282.672C439.601 282.69 438.86 282.492 438.217 282.102L438.366 281.397H441.828C442.049 281.625 442.222 281.894 442.339 282.189Z" fill="black"/>
<path d="M440.353 282.113C441.953 282.113 443.25 281.341 443.25 280.389C443.25 279.437 441.953 278.666 440.353 278.666C438.753 278.666 437.455 279.437 437.455 280.389C437.455 281.341 438.753 282.113 440.353 282.113Z" fill="#DCE2ED"/>
<path opacity="0.1" d="M545.636 301.124V303.244H544.672V301.124C544.831 301.095 544.992 301.082 545.154 301.085C545.315 301.086 545.477 301.099 545.636 301.124Z" fill="black"/>
<path opacity="0.1" d="M546.462 303.755C546.056 303.966 545.603 304.073 545.146 304.064C544.649 304.075 544.16 303.946 543.733 303.692C543.796 303.388 543.834 303.209 543.834 303.209H546.105C546.26 303.365 546.381 303.551 546.462 303.755Z" fill="black"/>
<path d="M545.144 303.725C546.202 303.725 547.058 303.215 547.058 302.586C547.058 301.957 546.202 301.447 545.144 301.447C544.087 301.447 543.23 301.957 543.23 302.586C543.23 303.215 544.087 303.725 545.144 303.725Z" fill="#DCE2ED"/>
<path d="M373.499 412.082C491.909 412.082 587.899 401.347 587.899 388.103C587.899 374.86 491.909 364.125 373.499 364.125C255.089 364.125 159.099 374.86 159.099 388.103C159.099 401.347 255.089 412.082 373.499 412.082Z" fill="#EEF1F4"/>
<path d="M349.6 331.918C349.6 331.918 306.606 330.108 302.08 245.812C297.554 161.516 342.361 147.239 342.361 147.239C342.361 147.239 356.556 139.3 362.851 138.971C369.146 138.643 390.185 140.627 390.185 140.627L366.991 136.148C366.991 136.148 399.627 123.71 409.407 122.716L374.125 130.177C374.125 130.177 373.643 110.606 382.078 104.138C382.078 104.138 374.848 103.597 371.035 117.696C369.95 121.764 367.927 125.52 365.13 128.663C362.332 131.807 358.838 134.249 354.926 135.796C341.84 140.907 323.746 148.977 319.625 155.889C319.625 155.889 312.004 163.852 313.166 143.117C314.327 122.382 319.789 104.63 321.779 104.133C321.779 104.133 337.348 87.5491 359.216 86.5549C359.216 86.5549 346.463 81.4097 324.927 97.5015C324.927 97.5015 323.105 89.3736 331.222 79.7494C339.339 70.1252 351.948 49.8922 365.675 47.7396C365.675 47.7396 346.463 46.5764 331.222 71.4574C331.222 71.4574 325.587 75.1062 325.091 65.8199C324.594 56.5336 321.283 44.916 321.283 44.916C321.283 44.916 316.641 66.3171 326.416 75.9364C326.416 75.9364 307.695 100.32 308.524 127.692C308.524 127.692 302.74 140.13 300.576 125.534C300.576 125.534 299.328 105.432 296.836 88.3696C295.828 81.4973 296.247 74.4906 298.066 67.7878C299.886 61.0849 303.067 54.8301 307.411 49.4144C311.551 44.2548 314.433 39.2448 312.833 36.6143L291.143 62.4896C291.143 62.4896 272.899 20.204 259.649 11.1011C246.399 1.9982 244.741 0 244.741 0L266.108 25.0451L239.275 15.556L266.108 27.9941C266.108 27.9941 278.534 38.1299 285.658 65.8151C292.782 93.5003 293.442 110.765 293.442 110.765C293.442 110.765 255.176 80.4106 247.888 81.4049L272.649 100.161C279.384 105.26 284.948 111.749 288.964 119.187C292.979 126.625 295.353 134.84 295.925 143.277C295.925 143.277 248.052 131.003 236.455 128.681L214.592 106.286L231.158 127.523L197.032 127.04L177.487 113.106C177.487 113.106 192.911 126.046 191.398 126.876C189.884 127.706 167.379 128.7 167.379 128.7C167.379 128.7 224.694 128.367 231.004 132.513C237.313 136.659 251.378 138.156 251.378 138.156L210.793 144.29L259.167 140.81C259.167 140.81 295.775 147.442 297.761 158.891C297.761 158.891 290.304 178.371 285.34 186.093C281.214 192.513 272.914 213.296 271.261 231.545C269.607 249.794 267.284 277.822 273.579 294.908C279.874 311.994 282.192 321.783 279.045 326.923C275.897 332.063 272.914 338.7 283.185 340.027C293.457 341.354 338.514 339.366 338.514 339.366C338.514 339.366 352.256 342.069 349.6 331.918Z" fill="#E1E3E4"/>
<path opacity="0.1" d="M350.396 328.823C345.889 326.523 340.72 325.875 335.787 326.994C327.351 328.823 314.429 327.853 313.253 327.651" fill="black"/>
<path opacity="0.1" d="M323.409 229.492C323.409 229.492 321.355 261.917 325.004 268.312L323.409 229.492Z" fill="black"/>
<path opacity="0.1" d="M315.832 268.312C315.832 268.312 318.464 298.681 320.286 304.617C322.108 310.554 315.832 268.312 315.832 268.312Z" fill="black"/>
<path opacity="0.1" d="M313.268 193.641C311.403 194.326 303.421 210.534 305.021 215.336C306.621 220.139 313.268 193.641 313.268 193.641Z" fill="black"/>
<path opacity="0.1" d="M298.943 231.264C299.868 240.68 300.389 246.844 299.781 254.383C299.286 260.238 299.37 266.128 300.032 271.966" fill="black"/>
<path opacity="0.1" d="M281.697 17.021C282.242 18.0821 282.961 19.0445 283.823 19.8687C284.575 20.583 285.433 21.1912 286.112 21.9731C286.65 22.655 287.133 23.378 287.558 24.1354C289.303 26.9299 291.496 29.4156 293.684 31.8579" fill="black"/>
<path opacity="0.1" d="M292.734 100.405L294.662 101.424C296.678 102.392 298.594 103.556 300.383 104.899" fill="black"/>
<path d="M270.34 313.219C268.807 314.413 266.92 315.061 264.978 315.061C263.036 315.061 261.149 314.413 259.616 313.219C258.121 303.32 261.92 283.864 262.816 279.5L263.004 278.617H267.294C267.579 278.906 267.807 279.247 267.964 279.621C270.933 285.954 270.34 313.219 270.34 313.219Z" fill="#535F89"/>
<path opacity="0.1" d="M266.412 274.62V278.618H264.604V274.616C264.896 274.568 265.191 274.546 265.487 274.548C265.797 274.547 266.106 274.572 266.412 274.62Z" fill="black"/>
<path opacity="0.1" d="M267.966 279.621C267.203 280.022 266.35 280.222 265.488 280.206C264.549 280.229 263.623 279.985 262.817 279.501L263.005 278.617H267.296C267.582 278.906 267.809 279.247 267.966 279.621Z" fill="black"/>
<path d="M265.488 279.524C267.484 279.524 269.103 278.562 269.103 277.376C269.103 276.19 267.484 275.228 265.488 275.228C263.491 275.228 261.873 276.19 261.873 277.376C261.873 278.562 263.491 279.524 265.488 279.524Z" fill="#DCE2ED"/>
<path opacity="0.1" d="M599.659 339.224C604.137 339.224 607.767 338.61 607.767 337.853C607.767 337.096 604.137 336.482 599.659 336.482C595.182 336.482 591.552 337.096 591.552 337.853C591.552 338.61 595.182 339.224 599.659 339.224Z" fill="#6C63FF"/>
<path d="M594.217 331.477C594.217 331.477 598.839 331.332 600.232 330.338C601.625 329.343 607.347 328.161 607.689 329.754C608.031 331.347 614.639 337.679 609.419 337.722C604.199 337.766 597.287 336.907 595.899 336.057C594.511 335.208 594.217 331.477 594.217 331.477Z" fill="#BBC5D0"/>
<path opacity="0.05" d="M609.512 337.168C604.292 337.211 597.385 336.352 596.016 335.503C594.96 334.856 594.536 332.539 594.396 331.473H594.242C594.242 331.473 594.531 335.204 595.924 336.053C597.317 336.903 604.224 337.757 609.445 337.718C610.953 337.718 611.469 337.168 611.445 336.372C611.209 336.859 610.635 337.158 609.512 337.168Z" fill="black"/>
<path opacity="0.1" d="M618.371 391.139C626.594 391.139 633.26 390.011 633.26 388.62C633.26 387.228 626.594 386.1 618.371 386.1C610.148 386.1 603.482 387.228 603.482 388.62C603.482 390.011 610.148 391.139 618.371 391.139Z" fill="#6C63FF"/>
<path d="M608.374 376.905C608.374 376.905 616.866 376.64 619.426 374.815C621.985 372.991 632.493 370.809 633.129 373.739C633.765 376.669 645.893 388.296 636.301 388.373C626.709 388.45 614.023 386.882 611.492 385.323C608.962 383.764 608.374 376.905 608.374 376.905Z" fill="#BBC5D0"/>
<path opacity="0.05" d="M636.474 387.355C626.882 387.432 614.191 385.859 611.637 384.305C609.709 383.117 608.918 378.856 608.658 376.891H608.374C608.374 376.891 608.913 383.764 611.492 385.323C614.071 386.882 626.738 388.456 636.325 388.373C639.096 388.373 640.051 387.37 639.998 385.907C639.588 386.771 638.532 387.341 636.474 387.355Z" fill="black"/>
<path d="M502.182 273.558C502.182 273.558 526.875 272.516 529.473 224.105C532.071 175.695 506.337 167.49 506.337 167.49C506.337 167.49 498.187 162.929 494.572 162.74C490.957 162.552 478.873 163.706 478.873 163.706L492.191 161.133C492.191 161.133 473.45 153.99 467.835 153.411L488.079 157.697C488.079 157.697 488.363 146.456 483.51 142.734C483.51 142.734 487.645 142.425 489.853 150.52C490.474 152.857 491.635 155.015 493.241 156.821C494.848 158.626 496.855 160.029 499.102 160.916C506.622 163.855 517.014 168.489 519.38 172.456C519.38 172.456 523.757 177.032 523.087 165.12C522.417 153.208 519.284 143.014 518.142 142.729C518.142 142.729 509.2 133.207 496.639 132.632C496.639 132.632 503.966 129.683 516.334 138.907C516.334 138.907 517.38 134.24 512.719 128.713C508.058 123.187 500.828 111.564 492.928 110.329C492.928 110.329 503.966 109.658 512.719 123.949C512.719 123.949 515.953 126.044 516.238 120.711C516.522 115.377 518.426 108.707 518.426 108.707C518.426 108.707 521.091 120.995 515.476 126.522C515.476 126.522 526.23 140.519 525.752 156.249C525.752 156.249 529.083 163.392 530.322 155.008C530.322 155.008 531.035 143.463 532.467 133.67C533.045 129.723 532.804 125.698 531.759 121.848C530.714 117.998 528.887 114.405 526.393 111.294C524.017 108.335 522.359 105.454 523.28 103.943L535.744 118.804C535.744 118.804 546.209 94.512 553.819 89.2704C561.43 84.0287 562.385 82.8896 562.385 82.8896L550.132 97.2776L565.556 91.8478L550.132 98.9959C550.132 98.9959 542.998 104.788 538.906 120.715C534.814 136.643 534.433 146.533 534.433 146.533C534.433 146.533 556.398 129.133 560.601 129.683L546.377 140.451C542.509 143.381 539.313 147.108 537.006 151.38C534.7 155.652 533.336 160.371 533.006 165.216C533.006 165.216 560.481 158.165 567.166 156.833L579.698 143.97L570.207 156.162L589.806 155.877L601.036 147.875C601.036 147.875 592.187 155.307 593.03 155.785C593.874 156.263 606.83 156.833 606.83 156.833C606.83 156.833 573.909 156.644 570.294 159.024C566.679 161.403 558.591 162.263 558.591 162.263L581.91 165.815L554.128 163.812C554.128 163.812 533.103 167.625 531.956 174.199C531.956 174.199 536.241 185.387 539.094 189.822C541.461 193.505 546.228 205.446 547.177 215.924C548.127 226.403 549.462 242.504 545.847 252.317C542.232 262.129 540.902 267.762 542.709 270.706C544.517 273.65 546.228 277.463 540.328 278.231C534.428 278.998 508.55 277.849 508.55 277.849C508.55 277.849 500.655 279.389 502.182 273.558Z" fill="#EEF1F4"/>
<path opacity="0.1" d="M478.56 264.88C481.146 263.561 484.112 263.191 486.942 263.833C491.762 264.88 499.209 264.316 499.884 264.21" fill="black"/>
<path opacity="0.1" d="M498.409 230.125C498.409 230.125 496.901 247.568 495.855 250.981C494.809 254.393 498.409 230.125 498.409 230.125Z" fill="black"/>
<path opacity="0.1" d="M518.017 85.8008C517.703 86.4095 517.291 86.9623 516.798 87.437C516.364 87.8473 515.872 88.1948 515.482 88.6436C515.169 89.0342 514.887 89.449 514.639 89.8841C513.595 91.4641 512.419 92.9528 511.125 94.3342" fill="black"/>
<path opacity="0.1" d="M511.68 133.694L510.566 134.274C509.411 134.833 508.313 135.504 507.288 136.277" fill="black"/>
<path d="M515.014 182.056H508.902V190.676H515.014V182.056Z" fill="#DCE0ED"/>
<path opacity="0.1" d="M515.016 182.056V184.861C514.585 184.984 514.139 185.044 513.69 185.04L508.908 185.001V182.056H515.016Z" fill="black"/>
<path d="M506.324 160.096H512.108C513.488 160.098 514.836 160.512 515.979 161.286C517.122 162.06 518.008 163.158 518.523 164.44C520.21 168.605 521.642 175.227 517.882 181.815C517.464 182.554 516.855 183.167 516.121 183.591C515.386 184.015 514.551 184.235 513.703 184.229L506.338 184.166L506.324 160.096Z" fill="#A0ABB8"/>
<path d="M506.324 184.165C509.737 184.165 512.504 178.778 512.504 172.133C512.504 165.487 509.737 160.1 506.324 160.1C502.912 160.1 500.145 165.487 500.145 172.133C500.145 178.778 502.912 184.165 506.324 184.165Z" fill="#F0F0F4"/>
<path d="M460.741 182.159H454.629V189.703H460.741V182.159Z" fill="#DCE0ED"/>
<path opacity="0.1" d="M460.742 182.159V184.573C460.31 184.695 459.862 184.756 459.412 184.751L454.629 184.708V182.173L460.742 182.159Z" fill="black"/>
<path d="M452.051 160.203H457.835C459.214 160.203 460.562 160.618 461.704 161.392C462.846 162.166 463.732 163.265 464.245 164.547C465.937 168.712 467.369 175.334 463.609 181.922C463.189 182.661 462.58 183.274 461.844 183.698C461.109 184.122 460.274 184.342 459.425 184.335L452.065 184.268L452.051 160.203Z" fill="#A0ABB8"/>
<path d="M452.05 184.268C455.463 184.268 458.23 178.881 458.23 172.235C458.23 165.59 455.463 160.203 452.05 160.203C448.638 160.203 445.871 165.59 445.871 172.235C445.871 178.881 448.638 184.268 452.05 184.268Z" fill="#F0F0F4"/>
<path d="M453.593 164.599C453.593 164.599 451.314 164.966 452.499 167.978C453.129 169.44 453.586 170.971 453.863 172.539C453.863 172.539 456.143 173.726 456.052 169.802C455.96 165.878 453.593 164.599 453.593 164.599Z" fill="#A0ABB8"/>
<path d="M222.048 376.104C241.958 376.104 258.097 358.391 258.097 336.541C258.097 314.691 241.958 296.978 222.048 296.978C202.139 296.978 186 314.691 186 336.541C186 358.391 202.139 376.104 222.048 376.104Z" fill="#414C5A"/>
<path opacity="0.1" d="M235.555 299.444C216.694 300.713 201.752 317.905 201.752 338.93C201.752 355.876 211.46 370.332 225.105 375.964C243.971 374.695 258.913 357.503 258.913 336.478C258.913 319.532 249.201 305.076 235.555 299.444Z" fill="black"/>
<path d="M504.184 288.27C520.343 288.27 533.442 271.166 533.442 250.068C533.442 228.969 520.343 211.865 504.184 211.865C488.026 211.865 474.927 228.969 474.927 250.068C474.927 271.166 488.026 288.27 504.184 288.27Z" fill="#636780"/>
<path opacity="0.1" d="M496.009 213.462C483.872 218.12 475.013 232.769 475.013 250.12C475.013 268.664 485.135 284.119 498.554 287.594C510.686 282.936 519.55 268.287 519.55 250.936C519.55 232.392 509.428 216.938 496.009 213.462Z" fill="black"/>
<path d="M394.277 241.911L394.822 228.045C394.822 228.045 392.104 222.06 389.39 221.519C386.676 220.978 380.429 220.636 380.429 220.636C380.429 220.636 375.542 240.55 378.8 246.535C382.059 252.52 394.277 241.911 394.277 241.911Z" fill="#636780"/>
<path d="M344.179 240.415C344.179 240.415 342.497 221.186 353.048 220.838C354.793 220.781 357.121 220.631 357.121 220.631C364.433 219.921 375.519 219.979 384.436 220.838C384.436 220.838 377.24 239.667 380.498 243.88L344.179 240.415Z" fill="#7F8295"/>
<path d="M493.733 276.069L507.885 276.479C507.885 276.479 510.329 250.372 511.143 248.336C511.958 246.299 512.368 236.506 509.721 235.082C507.075 233.658 498.221 231.92 498.221 231.92L491.695 246.801L491.188 260.262L493.733 276.069Z" fill="#F7BA50"/>
<path d="M459.517 232.736L459.454 229.84C459.449 229.611 459.491 229.384 459.578 229.171C459.664 228.959 459.793 228.767 459.957 228.607C460.121 228.447 460.315 228.322 460.529 228.24C460.742 228.159 460.97 228.122 461.199 228.131C468.217 228.426 493.744 229.652 498.212 231.935C498.212 231.935 493.324 268.337 498.723 277.005L496.891 306.167L434.366 301.476L459.517 232.736Z" fill="#F5AB2B"/>
<path opacity="0.1" d="M454.629 186.763C456.365 186.589 458.433 186.406 460.742 186.222V189.703H454.629V186.763Z" fill="black"/>
<path opacity="0.1" d="M515.016 190.234V190.673H508.908V188.027C511.028 188.505 513.08 189.246 515.016 190.234Z" fill="black"/>
<path d="M342.757 232.89C342.784 232.744 342.867 232.614 342.988 232.528C343.122 232.479 343.267 232.465 343.407 232.489C343.407 232.644 343.407 232.736 343.407 232.736C343.097 233.014 342.806 233.312 342.535 233.629C342.622 233.382 342.684 233.136 342.757 232.89ZM364.876 226.394C364.878 226.36 364.878 226.326 364.876 226.292C365.183 225.519 365.536 224.765 365.931 224.033C365.546 224.777 365.189 225.563 364.876 226.394ZM368.173 220.148C367.652 220.925 367.021 221.929 366.399 223.092C366.864 222.04 367.46 221.051 368.173 220.148ZM282.053 287.691C284.507 287.787 286.55 287.744 286.55 287.744C286.107 287.947 284.135 287.855 282.053 287.691ZM286.555 287.739C286.647 287.681 287.553 287.15 289.669 287.363C289.669 287.343 287.587 287.271 286.555 287.739ZM368.886 250.613L369.782 235.168C369.782 235.168 369.45 243.055 369.561 246.467C369.602 247.881 369.373 249.29 368.886 250.618V250.613Z" fill="url(#paint0_linear)"/>
<path d="M317.591 280.191C317.591 280.191 317.335 280.982 316.998 281.986C316.448 283.622 315.672 285.847 315.407 286.055C315.142 286.262 313.089 286.398 310.852 286.538C307.385 286.739 303.966 285.651 301.251 283.482C301.251 283.482 302.422 282.638 303.661 281.658C304.9 280.678 306.201 279.568 306.466 279.023C306.837 278.274 308.958 276.986 310.235 276.262C310.809 275.934 311.199 275.721 311.199 275.721L317.591 280.191Z" fill="#F899A5"/>
<path d="M314.883 287.01C314.883 287.01 292.344 285.973 291 285.674C289.655 285.374 289.38 283.791 289.38 283.791C288.932 282.739 291.308 282.966 291.308 282.966C291.549 283.004 294.2 283.448 296.697 283.767C298.697 284.023 300.591 284.197 301.035 284.008C302.042 283.588 304.052 283.767 304.052 283.767C302.91 279.983 299.449 279.08 297.969 278.868L298.061 278.776C298.454 278.41 298.886 278.086 299.348 277.811C303.941 277.999 306.371 284.341 306.371 284.341H306.409C306.93 284.506 312.468 286.224 313.567 286.383C314.714 286.562 314.883 287.01 314.883 287.01Z" fill="#F3B4B4"/>
<path d="M303.098 289.023C303.011 289.308 302.616 289.506 301.97 289.559C301.62 289.584 301.269 289.584 300.919 289.559C298.777 289.374 296.669 288.9 294.653 288.15C294.306 288.029 293.978 287.923 293.66 287.831H293.622C292.856 287.602 292.073 287.44 291.279 287.349C289.236 287.136 288.363 287.667 288.276 287.725C288.276 287.725 286.3 287.768 283.938 287.672C282.122 287.622 280.312 287.432 278.525 287.102C278.27 287.049 278.043 286.987 277.807 286.924C277.385 286.816 276.978 286.654 276.597 286.441C274.11 284.945 282.488 283.936 282.488 283.936C283.445 283.819 284.336 283.388 285.023 282.71L285.11 282.614L285.322 282.401C285.646 282.119 285.985 281.854 286.339 281.61L286.647 281.402C288.315 280.273 290.561 279.066 290.561 279.066C292.124 278.641 293.552 277.824 294.711 276.691C294.924 276.481 295.118 276.252 295.289 276.006L299.922 274.809L303.112 282.483C303.112 282.483 303.136 282.898 303.161 283.521C303.214 285.191 303.305 288.348 303.098 289.023Z" fill="#F899A5"/>
<path opacity="0.1" d="M301.969 289.559C301.62 289.584 301.268 289.584 300.919 289.559C298.776 289.374 296.668 288.9 294.653 288.149C294.306 288.029 293.978 287.923 293.66 287.831H293.621C292.856 287.602 292.072 287.44 291.279 287.348C289.235 287.136 288.362 287.667 288.276 287.725C288.276 287.725 286.3 287.768 283.938 287.672C282.121 287.622 280.312 287.431 278.525 287.102C278.269 287.049 278.043 286.986 277.807 286.923C278.115 286.885 278.426 286.872 278.737 286.885C278.973 286.914 281.653 287.242 284.15 287.449C286.165 287.618 288.064 287.71 288.488 287.503C289.476 287.02 291.491 287.126 291.491 287.126C290.189 283.395 286.671 282.647 285.201 282.497C285.229 282.464 285.263 282.435 285.287 282.401C285.663 282.026 286.074 281.69 286.516 281.397H286.613C291.148 281.469 293.819 287.609 293.819 287.609H293.857C294.383 287.749 299.993 289.231 301.087 289.342C301.391 289.365 301.689 289.438 301.969 289.559Z" fill="black"/>
<path d="M302.235 290.134C302.235 290.134 279.673 290.076 278.318 289.839C276.964 289.603 276.617 288.025 276.617 288.025C276.135 286.996 278.492 287.122 278.492 287.122C278.728 287.151 281.384 287.479 283.905 287.691C285.915 287.856 287.819 287.947 288.243 287.745C289.207 287.262 291.246 287.368 291.246 287.368C289.94 283.637 286.426 282.889 284.956 282.739L285.042 282.643C285.423 282.264 285.839 281.923 286.286 281.625C290.884 281.625 293.588 287.841 293.588 287.841H293.627C294.152 287.976 299.763 289.458 300.857 289.569C302.047 289.69 302.235 290.134 302.235 290.134Z" fill="#F3B4B4"/>
<path opacity="0.1" d="M317.591 280.191C317.591 280.191 317.336 280.982 316.998 281.986C316.863 281.895 312.424 278.936 310.732 276.996C310.534 276.777 310.362 276.536 310.221 276.276C310.795 275.948 311.185 275.736 311.185 275.736L317.591 280.191Z" fill="black"/>
<path d="M330.576 270.402L329.776 272.994L322.112 277.174C322.112 277.174 320.04 278.646 319.702 279.341C319.428 279.804 318.992 280.148 318.478 280.306C318.098 280.779 317.744 281.272 317.418 281.783C317.418 281.783 312.867 278.762 311.151 276.793C310.621 276.184 310.366 275.673 310.607 275.388C311.609 274.181 317.625 269.847 317.625 269.847C317.625 269.847 321.298 265.02 321.457 265.107C321.616 265.194 323.462 263.413 324.546 262.405L325.289 261.709L330.576 270.402Z" fill="#BDD3E8"/>
<path d="M342.052 263.655V264.934C342.052 264.934 346.872 269.553 346.236 273.318C345.6 277.082 346.945 281.774 346.945 281.774L351.794 281.426L351.061 264.224L342.052 263.655Z" fill="#BDD3E8"/>
<path opacity="0.05" d="M351.794 281.426L346.945 281.774C346.945 281.774 345.6 277.087 346.236 273.318C346.872 269.548 342.052 264.934 342.052 264.934V263.655L351.061 264.224L351.109 265.344L351.794 281.426Z" fill="black"/>
<path opacity="0.05" d="M324.946 263.157C323.412 264.584 321.99 266.129 320.695 267.776C318.988 270.049 316.082 273.317 316.082 273.317L312.607 275.378L311.161 276.783C310.63 276.174 310.375 275.663 310.616 275.378C311.618 274.171 317.634 269.837 317.634 269.837C317.634 269.837 321.307 265.011 321.466 265.097C321.625 265.184 323.471 263.403 324.555 262.395L324.946 263.157Z" fill="black"/>
<path opacity="0.1" d="M303.146 283.521C303.005 283.642 302.872 283.771 302.746 283.907C302.746 283.907 302.674 286.176 300.9 280.847C299.126 275.519 294.726 276.798 294.726 276.798C294.71 276.788 294.698 276.773 294.692 276.755C294.686 276.738 294.686 276.719 294.692 276.701C294.692 276.556 294.947 276.305 295.27 276.016L299.902 274.819L303.093 282.493C303.093 282.493 303.122 282.899 303.146 283.521Z" fill="black"/>
<path d="M319.491 253.21L316.792 253.282L314.946 255.913C314.946 255.913 311.895 259.18 310.974 259.996C310.053 260.812 304.091 266.425 302.39 269.34C302.39 269.34 300.828 270.122 300.828 270.904C300.828 271.686 297.849 273.959 297.849 273.959C297.849 273.959 294.726 276.088 295.15 276.373C295.15 276.373 299.551 275.094 301.324 280.422C303.098 285.751 303.17 283.477 303.17 283.477C303.477 283.141 303.837 282.857 304.236 282.638C304.66 282.483 306.679 279.573 307.301 279.5C307.76 279.409 308.192 279.215 308.564 278.931L312.179 275.378L315.659 273.317C315.659 273.317 318.551 270.05 320.267 267.777C321.565 266.13 322.988 264.586 324.523 263.158L319.491 253.21Z" fill="#BDD3E8"/>
<path opacity="0.1" d="M306.009 270.407C306.009 270.407 310.83 272.749 310.622 273.246C310.415 273.743 306.009 270.407 306.009 270.407Z" fill="black"/>
<path opacity="0.1" d="M309.817 269.837C309.817 269.837 310.193 271.947 312.112 271.851C314.031 271.754 309.817 269.837 309.817 269.837Z" fill="black"/>
<path opacity="0.1" d="M303.097 275.76C303.097 275.76 303.382 276.967 305.156 277.18C306.93 277.392 303.097 275.76 303.097 275.76Z" fill="black"/>
<path opacity="0.1" d="M321.158 270.407C321.158 270.407 323.497 271.373 323.709 272.715C323.921 274.057 321.158 270.407 321.158 270.407Z" fill="black"/>
<path opacity="0.1" d="M315.409 275.378C316.315 275.769 318.923 278.7 318.87 279.019C318.817 279.337 315.409 275.378 315.409 275.378Z" fill="black"/>
<path opacity="0.1" d="M319.558 273.299C319.83 273.202 320.123 273.182 320.405 273.242C320.688 273.301 320.948 273.438 321.158 273.637C321.809 274.314 319.558 273.299 319.558 273.299Z" fill="black"/>
<path d="M336.751 250.087C336.751 250.087 327.704 247.153 328.398 250.087C329.092 253.022 336.751 254.668 336.751 254.668V250.087Z" fill="#F899A5"/>
<path opacity="0.1" d="M351.11 265.344L348.329 265.151L342.049 264.624V263.659L351.062 264.224L351.11 265.344Z" fill="black"/>
<path opacity="0.1" d="M360.215 244.972C360.215 244.972 362.684 246.782 365.326 246.854C367.968 246.927 360.215 244.972 360.215 244.972Z" fill="black"/>
<path opacity="0.1" d="M363.406 239.234C363.406 239.234 365.358 238.267 366.458 239.074C367.557 239.881 363.406 239.234 363.406 239.234Z" fill="black"/>
<path opacity="0.1" d="M362.485 242.457C362.485 242.457 362.61 243.596 365.503 243.736C368.396 243.876 362.485 242.457 362.485 242.457Z" fill="black"/>
<path d="M346.945 281.774C346.945 281.774 342.438 283.265 340.679 282.483C338.92 281.701 335.093 278.719 335.093 278.719C335.093 278.719 332.634 276.305 330.297 273.607L329.998 273.26C327.973 270.899 326.142 268.433 326.142 267.212C326.153 266.705 326.09 266.199 325.954 265.711C325.75 265.005 325.424 264.34 324.99 263.747C324.748 263.406 324.47 263.092 324.161 262.81L316.781 253.287C316.781 253.287 318.912 251.014 318.912 250.391C318.912 249.769 321.466 246.274 324.729 248.123C326.103 248.895 329.386 251.777 332.731 254.851C337.334 259.079 342.043 263.679 342.043 263.679C342.043 263.679 342.376 264.036 342.862 264.591C344.111 266.039 346.367 268.766 346.545 270.147C346.805 272.039 346.945 281.774 346.945 281.774Z" fill="#BDD3E8"/>
<path opacity="0.05" d="M342.873 264.567C339.378 268.052 334.119 272.724 330.302 273.608L330.201 273.632L330.003 273.26L325.974 265.711L324.952 263.781L325.005 263.728L332.746 254.813C337.349 259.041 342.058 263.641 342.058 263.641C342.058 263.641 342.386 264.012 342.873 264.567Z" fill="black"/>
<path opacity="0.1" d="M345.952 259.467C346.928 258.387 347.67 257.116 348.131 255.735C348.936 253.388 347.89 258.115 346.164 259.998L345.952 259.467Z" fill="black"/>
<path d="M545.665 276.991L536.43 277.126L517.353 242.408L514.167 236.612L516.61 221.929L518.49 225.482L545.665 276.991Z" fill="#A0ABB8"/>
<path opacity="0.1" d="M447.313 216.262C447.313 216.557 447.347 216.861 447.366 217.165L447 224.622L441.799 217.575L444.922 213.361L447.313 216.262Z" fill="black"/>
<path opacity="0.1" d="M518.49 225.482L517.353 242.408L514.167 236.612L516.61 221.929L518.49 225.482Z" fill="black"/>
<path d="M436.525 227.093C436.525 227.093 431.966 192.993 448.576 187.891C448.789 187.829 449.006 187.784 449.226 187.756C453.048 187.298 488.654 183.186 507.139 188.07C507.139 188.07 519.767 189.977 519.632 196.758L514.031 279.842H504.936L507.92 224.916C507.92 224.916 512.258 200.986 505.071 199.335C497.884 197.685 465.152 194.991 453.612 198.249C453.612 198.249 445.192 196.343 446.551 217.145L446.006 228.295L436.525 227.093Z" fill="#A0ABB8"/>
<path d="M464.202 237.22C464.278 236.32 464.122 235.415 463.747 234.593C463.372 233.771 462.792 233.06 462.062 232.528C459.517 230.598 451.675 226.413 451.675 226.413L449.13 226.616L441.495 245.584L442.001 285.862L455.748 302.89L464.202 237.22Z" fill="#636780"/>
<path d="M409.35 279.438L409.62 238.103C409.62 238.103 408.4 222.059 417.973 221.789C417.973 221.789 440.545 221.953 450.354 225.144C450.663 225.243 450.946 225.411 451.183 225.634C451.42 225.857 451.604 226.13 451.722 226.433C451.84 226.736 451.89 227.062 451.866 227.387C451.843 227.711 451.748 228.027 451.587 228.31C449.659 231.712 446.343 240.724 444.753 263.833V288.613L409.35 279.438Z" fill="#6C63FF"/>
<path d="M456.972 305.849L415.896 304.888H415.858L395.671 304.42L398.009 277.396L409.211 277.806L444.855 285.76L455.748 302.89L456.972 305.849Z" fill="#6C63FF"/>
<path opacity="0.1" d="M456.972 305.849L415.896 304.888H415.858L395.671 304.42L398.009 277.396L409.211 277.806L444.855 285.76L455.748 302.89L456.972 305.849Z" fill="black"/>
<path d="M456.972 305.848L415.896 304.888L415.221 286.779L444.855 285.76L455.748 302.89L456.972 305.848Z" fill="#7F8295"/>
<path opacity="0.1" d="M415.858 304.888L395.671 304.405L398.014 277.376C398.014 277.376 404.328 287.474 415.221 286.759L415.858 304.888Z" fill="white"/>
<path d="M560.736 326.747C559.922 334.499 554.422 333.273 554.422 333.273L553.396 333.181L543.22 332.255L543.63 320.222C543.63 320.222 549.168 319.845 553.95 320.844C557.767 321.636 561.098 323.306 560.736 326.747Z" fill="#DCE0ED"/>
<path d="M405.118 253.037L396.442 251.739L390.06 259.278C390.06 259.278 381.167 263.694 380.131 265.625C379.094 267.555 375.86 273.212 374.433 273.256C373.007 273.299 371.671 275.384 371.662 276.209C371.652 277.035 366.23 286.514 364.885 287.06C363.54 287.605 361.207 290.684 361.265 291.293C361.323 291.901 356.204 297.963 356.204 297.963C356.204 297.963 347.528 311.559 346.236 311.994C344.944 312.428 339.946 321.208 338.678 322.25C337.411 323.293 333.858 324.229 334.292 325.074C334.726 325.918 343.45 337.859 342.92 341.243C342.92 341.243 349.413 336.098 349.668 334.514C349.923 332.931 357.958 324.581 357.958 324.581L400.042 280.814L408.154 253.23L405.118 253.037Z" fill="#CEDDF9"/>
<path opacity="0.1" d="M428.418 267.096C428.418 267.096 430.148 286.991 424.412 290.003C418.676 293.015 414.772 292.667 413.668 293.995C412.565 295.322 405.841 296.495 405.127 297.701C404.414 298.908 385.572 309.454 385.572 309.454C385.572 309.454 372.684 317.061 370.664 318.716C368.644 320.372 357.65 325.213 355.775 327.491C353.9 329.769 342.13 337.236 342.13 337.236C342.13 337.236 338.683 326.617 334.721 325.686C334.721 325.686 344.246 323.808 344.809 322.307C345.373 320.806 348.217 319.194 348.217 319.194C348.217 319.194 361.776 311.317 362.195 309.541C362.615 307.765 365.955 305.236 365.955 305.236C365.955 305.236 371.339 297.865 373.32 297.156C375.301 296.446 387.047 284.37 387.047 284.37C387.047 284.37 395.034 280.142 395.921 278.752C396.808 277.362 411.943 269.485 411.943 269.485L394.692 248.021L400.148 246.342L416.31 250.686L419.202 255.932L428.418 267.096Z" fill="black"/>
<path d="M444.445 218.318L435.29 227.46C435.29 227.46 424.228 221.561 428.596 219.194C431.461 217.639 432.492 209.618 432.86 204.277C433.054 201.496 433.064 199.466 433.064 199.466C433.064 199.466 445.546 199.437 443.25 205.163C442.641 206.74 442.375 208.543 442.487 210.34C442.661 214.579 444.445 218.318 444.445 218.318Z" fill="#FBE1B3"/>
<path opacity="0.1" d="M455.324 197.13C454.664 196.778 454.135 196.223 453.815 195.547C453.3 194.543 452.784 193.317 451.685 193.061C451.068 192.912 450.321 193.095 449.863 192.656C449.506 192.308 449.516 191.744 449.511 191.247C449.527 190.112 449.207 188.999 448.59 188.047C448.278 187.577 447.852 187.194 447.352 186.933C446.853 186.673 446.295 186.543 445.732 186.555C444.166 186.661 442.802 188.09 441.259 187.805C440.58 187.68 439.929 187.221 439.264 187.4C439.004 187.481 438.765 187.616 438.56 187.796C437.12 188.93 436.01 190.43 435.345 192.139C434.709 193.761 434.497 195.518 433.735 197.106C433.431 197.724 432.848 198.385 432.193 198.192C431.171 197.888 431.711 196.599 431.142 196.035C430.91 195.853 430.63 195.74 430.337 195.711C430.191 193.909 430.432 192.096 431.044 190.396C431.657 188.695 432.626 187.145 433.887 185.851C435.148 184.557 436.671 183.549 438.355 182.894C440.038 182.239 441.841 181.954 443.644 182.056C445.447 182.158 447.207 182.646 448.805 183.487C450.403 184.328 451.803 185.503 452.91 186.931C454.017 188.36 454.805 190.009 455.221 191.769C455.638 193.528 455.673 195.356 455.324 197.13Z" fill="black"/>
<path opacity="0.1" d="M460.851 253.876C461.14 253.905 466.409 254.842 467.647 256.618C468.886 258.394 460.851 253.876 460.851 253.876Z" fill="black"/>
<path opacity="0.1" d="M458.215 248.248C458.215 248.248 463.96 249.551 464.625 250.106C465.291 250.661 458.215 248.248 458.215 248.248Z" fill="black"/>
<g opacity="0.1">
<path opacity="0.1" d="M429.196 186.609C429.471 185.301 428.922 183.886 429.148 182.602C429.148 182.602 429.148 182.602 429.148 182.626C428.541 184.036 429.307 185.682 429.023 187.188C429.095 187 429.153 186.806 429.196 186.609Z" fill="black"/>
<path opacity="0.1" d="M458.809 191.17C458.765 191.298 458.743 191.431 458.742 191.566C458.923 191.322 459.125 191.095 459.344 190.885C459.858 190.324 460.209 189.633 460.362 188.887C460.177 189.385 459.897 189.843 459.537 190.234C459.234 190.494 458.986 190.812 458.809 191.17Z" fill="black"/>
<path opacity="0.1" d="M459.46 195.494C458.93 195.822 458.217 195.494 457.624 195.696C457.301 195.807 457.045 196.058 456.732 196.179C455.686 196.614 454.635 195.566 454.12 194.562C453.604 193.558 453.088 192.332 451.989 192.072C451.372 191.927 450.62 192.11 450.167 191.666C449.811 191.324 449.82 190.759 449.811 190.262C449.829 189.128 449.51 188.014 448.895 187.062C448.581 186.593 448.154 186.21 447.654 185.948C447.154 185.687 446.596 185.555 446.032 185.565C444.47 185.672 443.106 187.105 441.564 186.82C440.884 186.69 440.228 186.236 439.563 186.41C439.306 186.496 439.068 186.632 438.864 186.811C437.422 187.944 436.31 189.444 435.645 191.155C435.46 191.618 435.299 192.09 435.163 192.569C435.245 192.313 435.331 192.057 435.433 191.806C436.098 190.096 437.21 188.595 438.652 187.462C438.855 187.282 439.093 187.145 439.351 187.062C440.016 186.888 440.672 187.342 441.347 187.467C442.889 187.757 444.239 186.323 445.82 186.217C446.383 186.205 446.941 186.336 447.441 186.597C447.941 186.859 448.366 187.243 448.678 187.713C449.297 188.662 449.618 189.775 449.599 190.909C449.599 191.391 449.599 191.97 449.955 192.318C450.408 192.762 451.155 192.578 451.777 192.723C452.876 192.984 453.387 194.205 453.908 195.209C454.428 196.213 455.474 197.265 456.52 196.831C456.833 196.7 457.089 196.445 457.412 196.348C458.005 196.15 458.713 196.474 459.243 196.145C459.386 196.052 459.501 195.922 459.577 195.77C459.654 195.617 459.688 195.447 459.677 195.277C459.619 195.361 459.545 195.435 459.46 195.494Z" fill="black"/>
<path opacity="0.1" d="M434.034 196.121C433.735 196.739 433.147 197.395 432.492 197.202C431.47 196.903 432.01 195.614 431.446 195.05C430.882 194.485 429.123 194.692 428.323 194.364C427.681 194.142 427.132 193.712 426.761 193.143C426.495 192.641 426.423 192.059 426.558 191.507C426.387 191.864 426.298 192.255 426.298 192.651C426.298 193.047 426.387 193.438 426.558 193.795C426.928 194.365 427.478 194.795 428.12 195.016C428.92 195.344 430.704 195.17 431.243 195.701C431.783 196.232 431.268 197.555 432.289 197.854C432.945 198.047 433.528 197.371 433.832 196.773C434.141 196.101 434.391 195.403 434.579 194.688C434.433 195.178 434.251 195.657 434.034 196.121Z" fill="black"/>
</g>
<path opacity="0.1" d="M412.526 220.399C412.526 220.399 408.376 226.602 408.872 227.9C409.369 229.198 412.526 220.399 412.526 220.399Z" fill="black"/>
<path opacity="0.1" d="M413.135 240.608C413.135 240.608 415.338 241.53 416.143 242.394C416.948 243.258 413.135 240.608 413.135 240.608Z" fill="black"/>
<path opacity="0.1" d="M560.737 326.748C559.922 334.499 554.423 333.273 554.423 333.273L553.396 333.181C552.293 331.444 551.73 329.419 551.777 327.361C551.777 324.663 552.635 322.278 553.95 320.845C557.768 321.636 561.099 323.306 560.737 326.748Z" fill="black"/>
<path fill-rule="evenodd" clip-rule="evenodd" d="M386.745 325.238C384.952 331.526 380.486 343.445 374.31 357.132L368.441 355.417C373.575 323.922 377.848 303.07 380.296 296.724C381.913 292.531 394.147 293.022 392.74 301.459C392.149 304.997 389.814 314.471 386.745 325.238ZM410.866 302.93C420.436 304.915 440.279 311.934 445.945 314.177C449.507 315.586 447.211 320.366 444.173 319.948C443.658 319.877 441.838 319.673 439.123 319.369C430.399 318.392 412.435 316.379 398.81 314.416C391.636 313.382 395.495 299.926 402.944 301.35C405.45 301.829 408.116 302.359 410.866 302.93Z" fill="#B28B67"/>
<path fill-rule="evenodd" clip-rule="evenodd" d="M379.921 293.168C380.899 289.971 407.572 275.244 407.572 275.244L429.021 278.622V282.023L398.372 297.647C398.413 298.151 398.388 298.684 398.289 299.246C398.511 310.828 393.56 319.48 388.659 328.047C385.454 333.649 382.27 339.215 380.567 345.538L369.306 343.856C369.634 343.016 370.153 339.229 370.862 334.05C372.65 320.992 375.65 299.091 379.857 293.297C379.872 293.276 379.887 293.256 379.902 293.236C379.908 293.214 379.914 293.191 379.921 293.168Z" fill="#69A1AC"/>
<path fill-rule="evenodd" clip-rule="evenodd" d="M426.475 306.925C429.279 306.363 431.862 305.861 434.071 305.473C448.345 302.966 452.507 295.315 450.046 278.622H423.747C419.451 279.858 397.125 289.233 385.542 294.22C377.875 297.52 380.292 309.418 384.633 312.514C384.657 312.704 384.735 312.833 384.874 312.891C401.335 319.722 415.372 319.213 424.386 318.885C428.161 318.748 431.055 318.643 432.877 319.123L435.732 310.105L426.475 306.925Z" fill="#89C5CC"/>
<path fill-rule="evenodd" clip-rule="evenodd" d="M442.861 314.832C442.981 313.667 443.957 312.72 445.114 312.894C445.926 313.016 446.772 313.192 447.267 313.434C448.439 314.006 450.497 315.495 450.497 315.495C449.834 316.856 438.579 339.962 438.579 339.962C438.579 339.962 434.966 339.378 435.716 337.201C436.466 335.023 436.925 333.565 436.925 333.565L437.383 320.252C437.403 319.689 437.882 319.253 438.444 319.289L440.04 319.389C440.04 319.389 441.853 317.92 442.432 316.731C442.659 316.265 442.788 315.541 442.861 314.832Z" fill="#E4E4E4"/>
<path fill-rule="evenodd" clip-rule="evenodd" d="M374.737 354.478C375.838 354.075 377.119 354.538 377.47 355.656C377.716 356.44 377.929 357.278 377.929 357.828C377.929 359.134 377.495 361.639 377.495 361.639C375.982 361.639 350.309 361.639 350.309 361.639C350.309 361.639 349.249 358.131 351.532 357.851C353.815 357.571 355.325 357.346 355.325 357.346L367.474 351.923C367.989 351.693 368.591 351.934 368.806 352.455L369.415 353.935C369.415 353.935 371.529 354.922 372.85 354.922C373.366 354.922 374.07 354.722 374.737 354.478Z" fill="#E4E4E4"/>
<path fill-rule="evenodd" clip-rule="evenodd" d="M435.764 238.759L433.397 214.036C418.968 219.776 397.54 224.808 392.834 229.814C391.109 231.65 391.861 233.582 390.758 233.783L392.473 238.461C393.456 238.092 393.868 240.132 396.896 240.754C399.924 241.376 415.554 245.83 435.764 238.759Z" fill="#191847"/>
<path fill-rule="evenodd" clip-rule="evenodd" d="M443.856 212.407C446.054 212.628 447.658 214.588 447.439 216.786L447.436 216.816C457.071 234.481 467.757 272.803 452.571 289.239C444.002 298.512 406.737 280.349 404.457 269.001C402.904 261.269 407.219 254.456 413.147 245.098C417.962 237.495 423.842 228.212 428.504 215.391L428.554 214.895C428.773 212.697 430.733 211.093 432.931 211.313L443.856 212.407Z" fill="#2F3676"/>
<path d="M403.373 225.187C394.075 225.187 386.542 235.386 386.542 247.964C386.542 260.542 394.075 270.735 403.373 270.735C412.671 270.735 420.21 260.537 420.21 247.964C420.21 235.39 412.676 225.187 403.373 225.187ZM400.997 265.976C393.912 265.976 388.171 258.582 388.171 249.455C388.171 240.328 393.912 232.938 400.997 232.938C408.082 232.938 413.828 240.333 413.828 249.455C413.828 258.577 408.087 265.976 400.997 265.976Z" fill="#636780"/>
<path d="M404.188 254.967L412.064 262.714L414.913 255.778L403.509 249.117L404.188 254.967Z" fill="#636780"/>
<path d="M415.8 178.263L422.654 179.098L425.199 182.124L421.343 199.5L413.149 227.494L407.77 246.713L403.991 258.384L401.581 273.829L399.171 284.447L391.941 291.687L377.24 274.311L374.83 268.52L369.046 256.694L383.988 249.696L400.376 248.248L408.088 228.459L414.354 205.533L415.8 178.263Z" fill="#6C63FF"/>
<path d="M277.104 261.082L268.144 336.406L380.971 331.647L367.937 294.665L346.213 280.524L395.908 281.339L396.178 260.677L376.083 256.323L335.624 253.06L305.21 251.704L276.154 261.217" fill="#F7BA50"/>
<path d="M431.252 336.145C431.252 354.862 425.039 371.9 407.807 370.037C386.073 369.554 384.367 354.862 384.367 336.145C384.367 317.428 394.86 303.498 407.807 303.498C420.754 303.498 431.252 317.428 431.252 336.145Z" fill="#636780"/>
<path opacity="0.1" d="M431.388 336.179C431.388 321.7 425.098 310.068 416.248 305.56C404.882 307.722 396.148 320.812 396.148 337.898C396.148 353.236 397.296 365.892 409.673 370.202C425.594 370.767 431.388 354.255 431.388 336.179Z" fill="black"/>
<path d="M453.396 306.771L446.768 314.372L458.698 312.321L467.615 304.116L475.568 288.188L486.774 281.31L514.249 285.051L539.674 286.016L549.059 277.671L538.59 276.243L527.986 276.001L501.355 275.398L469.663 274.553L463.156 291.929L458.216 303.875L453.396 306.771Z" fill="#6C63FF"/>
<path d="M544.58 337.762C544.036 338.578 526.264 341.3 526.264 341.3L477.1 350.272L392.663 351.493L382.753 343.061L377.547 343.988L377.335 344.027L307.792 356.388L306.659 356.228L287.707 353.521L188.718 339.393L189.827 325.005L190.482 316.51L191.837 298.879L192.801 294.255L201.616 293.444L205.733 293.068L269.979 287.165L278.38 286.393L283.089 285.963L328.981 279.689L395.916 281.32L396.186 260.653C396.186 260.653 414.56 177.505 419.862 177.988C425.164 178.471 426.128 183.78 426.128 183.78L405.821 260.797L405.547 307.977C452.421 312.717 453.935 302.489 461.348 305.935L470.313 277.251L549.058 277.661C552.206 281.474 544.58 337.762 544.58 337.762Z" fill="#F5AB2B"/>
<path d="M349.201 294.936L374.184 348.641L382.599 351.359L384.638 342.656L375.268 312.881L365.628 295.617L349.201 294.936Z" fill="#F5AB2B"/>
<path d="M332.939 405.469C357.927 405.469 378.184 382.46 378.184 354.076C378.184 325.692 357.927 302.683 332.939 302.683C307.95 302.683 287.693 325.692 287.693 354.076C287.693 382.46 307.95 405.469 332.939 405.469Z" fill="#414C5A"/>
<path d="M211.662 264.209L209.421 274.794L202.567 307.185L173.102 304.328C173.102 304.328 171.338 298.893 175.956 296.852C175.956 296.852 177.469 278.448 182.916 272.651C183.498 271.99 184.23 271.478 185.051 271.16L211.662 264.209Z" fill="#F9CE82"/>
<path d="M278.058 267.072C281.856 273.453 272.645 332.322 272.645 332.322L200.258 320.357L202.837 268.829C204.331 259.586 209.763 258.5 209.763 258.5C235.309 245.584 293.94 242.862 293.94 242.862C347.442 244.899 396.177 260.672 396.177 260.672C335.353 251.294 278.058 267.072 278.058 267.072Z" fill="#F5AB2B"/>
<path opacity="0.1" d="M349.08 305.892C325.404 307.543 306.664 329.87 306.664 357.179C306.664 379.193 318.849 397.973 335.975 405.29C359.651 403.64 378.391 381.312 378.391 354.003C378.391 331.989 366.206 313.209 349.08 305.892Z" fill="black"/>
<path d="M272.645 332.322L200.258 320.357L202.837 268.828C204.331 259.585 209.763 258.499 209.763 258.499C209.763 258.499 262.576 253.465 278.058 267.071C281.856 273.452 272.645 332.322 272.645 332.322Z" fill="#F7BA50"/>
<path d="M264.977 328.924L204.466 318.716L206.611 274.751C207.86 266.864 212.395 265.938 212.395 265.938C212.395 265.938 256.556 261.642 269.498 273.245C272.694 278.694 264.977 328.924 264.977 328.924Z" fill="#F9CE82"/>
<path opacity="0.1" d="M259.997 307.852C264.57 307.852 268.278 301.095 268.278 292.759C268.278 284.424 264.57 277.667 259.997 277.667C255.424 277.667 251.716 284.424 251.716 292.759C251.716 301.095 255.424 307.852 259.997 307.852Z" fill="black"/>
<path d="M259.997 307.446C264.57 307.446 268.278 300.689 268.278 292.353C268.278 284.018 264.57 277.261 259.997 277.261C255.424 277.261 251.716 284.018 251.716 292.353C251.716 300.689 255.424 307.446 259.997 307.446Z" fill="#DCE0ED"/>
<path d="M261.077 281.204C261.077 281.204 257.703 281.744 259.448 286.233C261.193 290.722 261.482 293.029 261.482 293.029C261.482 293.029 264.856 294.8 264.741 288.95C264.625 283.1 261.077 281.204 261.077 281.204Z" fill="#F0F0F4"/>
<path opacity="0.1" d="M215.599 300.882C219.875 300.882 223.34 294.568 223.34 286.779C223.34 278.99 219.875 272.675 215.599 272.675C211.324 272.675 207.858 278.99 207.858 286.779C207.858 294.568 211.324 300.882 215.599 300.882Z" fill="black"/>
<path d="M215.599 300.472C219.875 300.472 223.34 294.157 223.34 286.368C223.34 278.579 219.875 272.265 215.599 272.265C211.324 272.265 207.858 278.579 207.858 286.368C207.858 294.157 211.324 300.472 215.599 300.472Z" fill="#DCE0ED"/>
<path d="M216.684 275.219C216.684 275.219 213.31 275.764 215.055 280.253C216.8 284.742 217.094 287.049 217.094 287.049C217.094 287.049 220.468 288.815 220.352 282.97C220.237 277.125 216.684 275.219 216.684 275.219Z" fill="#F0F0F4"/>
<path opacity="0.1" d="M250.472 279.978C249.932 285.553 247.214 326.883 247.214 326.883L242.606 326.111L240.047 325.691L236.634 325.116L236.219 325.049L222.776 322.804L225.432 278.965C225.521 277.556 226.149 276.237 227.185 275.28C228.221 274.324 229.586 273.804 230.995 273.829C231.131 273.822 231.268 273.822 231.404 273.829C232.334 273.911 233.332 274.008 234.378 274.124C234.817 274.172 235.265 274.22 235.713 274.278C237.005 274.432 238.34 274.621 239.646 274.833C240.312 274.949 240.967 275.07 241.618 275.195C242.712 275.412 243.772 275.654 244.751 275.929C245.411 276.112 246.043 276.31 246.621 276.527C249.05 277.406 250.636 278.54 250.472 279.978Z" fill="black"/>
<path d="M230.994 273.83L228.363 323.061L226.868 322.925L229.476 273.979C229.973 273.858 230.484 273.808 230.994 273.83Z" fill="#F9CC7D"/>
<path d="M235.713 274.274L233.25 324.026H230.941L234.378 274.114C234.816 274.167 235.264 274.216 235.713 274.274Z" fill="#F9CC7D"/>
<path d="M241.618 275.19L237.733 325.116H236.234V325.048L239.642 274.852C240.312 274.944 240.967 275.064 241.618 275.19Z" fill="#F9CC7D"/>
<path d="M246.616 276.522L242.62 326.111V326.207L240.042 325.932V325.691L244.727 275.924C245.411 276.107 246.043 276.305 246.616 276.522Z" fill="#F9CC7D"/>
<path opacity="0.1" d="M191.399 314.922C191.399 314.922 186.41 289.124 197.814 287.797C209.218 286.47 246.694 289.245 245.571 299.83C244.448 310.414 243.243 326.545 243.243 326.545L235.507 324.812C235.507 324.812 241.291 300.544 232.248 299.627C223.206 298.71 200.986 296.157 200.986 296.157C200.986 296.157 194.975 295.138 198.441 316.428L191.399 314.922Z" fill="black"/>
<path d="M191.399 317.37C191.399 317.37 186.41 289.94 197.814 288.613C209.218 287.286 246.694 290.061 245.571 300.646C244.448 311.23 243.243 327.361 243.243 327.361L235.507 325.628C235.507 325.628 241.291 301.36 232.248 300.443C223.206 299.526 200.971 296.997 200.971 296.997C200.971 296.997 194.961 297.61 198.426 318.924L191.399 317.37Z" fill="#DCE0ED"/>
<path d="M392.664 351.493L382.619 351.358C375.288 319.02 363.199 298.879 363.199 298.879C359.112 296.702 314.58 296.997 314.58 296.997C309.962 297.812 308.742 312.499 308.742 312.499C308.742 312.499 312.68 315.878 308.877 318.074C307.181 319.039 301.59 319.228 295.15 318.895C287.158 318.48 277.846 317.263 273.036 315.762C264.36 313.04 271.267 308.011 271.267 308.011C271.267 308.011 272.491 306.379 273.306 297.392C273.865 292.153 275.556 287.099 278.261 282.58C278.637 281.957 278.873 281.614 278.873 281.614C279.329 281.179 279.868 280.84 280.459 280.62C291.969 275.793 348.387 280.388 348.387 280.388L369.296 287.054C369.875 287.285 370.767 288.762 371.865 291.123C378.474 305.308 392.664 351.493 392.664 351.493Z" fill="#F7BA50"/>
<path d="M371.865 291.118C352.585 283.608 299.371 287.594 299.371 287.594C293.722 282.768 283.094 282.439 278.26 282.57C278.636 281.947 278.872 281.604 278.872 281.604C279.328 281.169 279.867 280.831 280.458 280.61C291.968 275.784 348.386 280.379 348.386 280.379L369.296 287.044C369.874 287.281 370.766 288.757 371.865 291.118Z" fill="#F9CE82"/>
<path d="M302.495 289.631C301.275 293.845 296.263 310.709 296.263 310.709C295.738 313.406 295.369 316.131 295.159 318.87C287.167 318.455 277.855 317.239 273.045 315.738C264.368 313.016 271.276 307.987 271.276 307.987C271.276 307.987 272.5 306.355 273.314 297.368C273.913 291.747 275.819 286.344 278.882 281.595C279.337 281.159 279.877 280.821 280.467 280.601C288.006 282.396 310.93 278.622 302.495 289.631Z" fill="#F9CE82"/>
<path d="M314.921 182.563C310.448 184.262 307.18 194.596 307.18 194.596L292.517 243.644L396.176 260.672L422.513 178.712C402.51 170.024 314.921 182.563 314.921 182.563ZM398.307 234.975C398.307 234.975 397.695 239.667 393.723 240.077L326.518 237.446L312.732 236.901L308.11 236.722H307.782C307.782 236.722 302.687 237.639 303.502 233.344C303.502 233.344 310.207 193.192 318.984 189.499C318.984 189.499 320.01 189.282 321.808 188.944C324.633 188.408 328.523 187.989 334.548 187.158C336.958 186.826 342.501 186.434 342.501 186.434C342.501 186.434 354.551 185.469 364.673 184.986C364.673 184.986 378.41 184.447 391.183 184.447C404.92 184.447 412.873 184.447 410.834 191.729C410.844 191.744 400.457 231.611 398.317 234.975H398.307Z" fill="#F5AB2B"/>
<path opacity="0.1" d="M317.244 337.323C316.655 338.422 315.764 339.33 314.677 339.94C313.591 340.551 312.353 340.838 311.109 340.769L309.031 340.678L289.457 339.833L282.401 339.529L275.884 338.988L189.827 324.991L190.483 316.497L200.378 317.916L204.475 318.504L265.232 327.192L273.228 328.37L277.108 328.925L293.54 328.804L311.325 328.674C312.223 328.657 313.115 328.821 313.948 329.157C315.475 329.764 316.71 330.938 317.394 332.434C317.758 333.202 317.934 334.046 317.908 334.897C317.882 335.747 317.655 336.579 317.244 337.323Z" fill="black"/>
<path d="M317.245 338.139C316.655 339.238 315.765 340.146 314.678 340.756C313.591 341.366 312.353 341.654 311.109 341.585L282.401 340.344L275.885 339.799L184.111 324.89L176.881 323.717L172.967 323.061C165.231 321.429 167.54 313.678 167.54 313.678C168.08 310.14 181.388 306.877 185.731 307.017C188.652 307.109 189.057 311.612 189.008 314.561C189.008 316.009 188.854 317.076 188.854 317.076L193.149 317.693L277.109 329.721L311.331 329.47C312.599 329.448 313.847 329.793 314.924 330.464C316 331.136 316.86 332.105 317.399 333.254C317.762 334.022 317.937 334.866 317.91 335.715C317.883 336.564 317.656 337.395 317.245 338.139Z" fill="#DCE0ED"/>
<path opacity="0.1" d="M179.484 311.931C179.484 311.931 183.152 316.415 188.854 317.095C188.854 317.095 186.545 312.066 179.484 311.931Z" fill="black"/>
<path opacity="0.1" d="M178.534 324.576C178.534 324.576 166.451 324.301 166.451 330.85C166.451 337.4 174.057 338.467 174.057 338.467L281.996 359.26L312.681 359.8C312.681 359.8 323.405 351.238 312.271 347.43L281.321 348.231L178.4 329.335C178.4 329.335 181.113 325.662 178.534 324.576Z" fill="black"/>
<path d="M312.681 360.602L281.996 360.061L186.02 341.566L178.997 340.209L174.057 339.244C174.057 339.244 166.451 338.153 166.451 331.628C166.451 326.946 172.678 325.763 176.192 325.469C177.575 325.358 178.534 325.377 178.534 325.377C181.113 326.463 178.4 330.131 178.4 330.131L182.145 330.822L281.321 349.047L312.276 348.231C323.405 352.02 312.681 360.602 312.681 360.602Z" fill="#DCE0ED"/>
<path d="M187.629 319.271L194.011 316.413L197.269 316.278L196.999 343.741L186.954 341.705L182.742 338.987L180.708 327.568C180.708 327.568 181.522 322.809 181.927 322.403C182.332 321.998 187.629 319.271 187.629 319.271Z" fill="#DCE0ED"/>
<path opacity="0.1" d="M187.629 319.271L194.011 316.413L197.269 316.278L196.999 343.741L186.954 341.705L182.742 338.987L180.708 327.568C180.708 327.568 181.522 322.809 181.927 322.403C182.332 321.998 187.629 319.271 187.629 319.271Z" fill="black"/>
<path opacity="0.1" d="M186.019 341.565L186.135 341.705L179.078 340.344L178.996 340.209C175.28 334.2 174.957 329.335 176.191 325.473C177.574 325.362 178.533 325.382 178.533 325.382C181.112 326.468 178.398 330.136 178.398 330.136L182.144 330.826C181.893 336.212 185.33 340.716 186.019 341.565Z" fill="black"/>
<path opacity="0.1" d="M196.459 316.303C195.264 316.76 194.16 317.243 193.148 317.751C188.579 319.952 185.759 322.423 184.11 324.928L176.88 323.755C180.009 317.249 187.484 314.276 187.484 314.276L188.998 314.619L196.459 316.303Z" fill="black"/>
<path d="M188.294 314.242C188.294 314.242 168.474 322.128 179.878 340.344L186.939 341.705C186.939 341.705 172.961 325.661 197.254 316.279L188.294 314.242Z" fill="#DCE0ED"/>
<path d="M235.559 323.08L242.89 322.81L241.666 352.31L229.852 350.138L224.83 347.691L222.521 341.841L220.892 335.996L224.83 330.691L229.312 327.704L235.559 323.08Z" fill="#DCE0ED"/>
<path opacity="0.1" d="M235.559 323.08L242.89 322.81L241.666 352.31L229.852 350.138L224.83 347.691L222.521 341.841L220.892 335.996L224.83 330.691L229.312 327.704L235.559 323.08Z" fill="black"/>
<path d="M234.744 344.287C236.693 344.287 238.272 341.61 238.272 338.307C238.272 335.005 236.693 332.327 234.744 332.327C232.795 332.327 231.216 335.005 231.216 338.307C231.216 341.61 232.795 344.287 234.744 344.287Z" fill="#DCE0ED"/>
<path d="M209.116 354.993C208.099 349.795 204.128 348.67 204.128 348.67C204.128 348.67 196.488 346.431 196.285 354.916C196.285 354.916 196.387 360.119 199.852 361.75L200.055 367.542C200.055 367.542 200.358 372.948 197.302 372.436C194.247 371.925 194.656 367.127 194.656 367.127C194.656 367.127 193.027 362.03 189.055 364.68C189.055 364.68 188.14 367.537 190.178 368.966C191.364 369.796 191.408 371.495 191.239 372.769C191.12 373.556 191.173 374.359 191.392 375.124C191.612 375.888 191.994 376.597 192.511 377.2C193.097 377.903 193.86 378.437 194.721 378.746C195.582 379.054 196.51 379.127 197.409 378.957C199.053 378.634 200.544 377.775 201.65 376.515C203.514 374.488 204.561 371.841 204.59 369.087L204.74 361.625C204.74 361.625 210.133 360.196 209.116 354.993ZM202.85 360.244C201.992 360.244 201.154 359.99 200.44 359.512C199.727 359.035 199.171 358.356 198.843 357.563C198.514 356.769 198.428 355.896 198.596 355.053C198.763 354.21 199.176 353.436 199.783 352.829C200.39 352.221 201.163 351.808 202.004 351.64C202.846 351.472 203.718 351.558 204.51 351.887C205.303 352.216 205.981 352.773 206.457 353.487C206.934 354.201 207.188 355.041 207.188 355.9C207.183 357.048 206.725 358.147 205.913 358.958C205.101 359.768 204.002 360.224 202.855 360.225L202.85 360.244Z" fill="#DCE0ED"/>
<path d="M201.077 346.425C200.83 346.528 200.607 346.682 200.423 346.876C200.239 347.07 200.097 347.3 200.006 347.552C199.915 347.804 199.878 348.072 199.896 348.339C199.915 348.606 199.988 348.867 200.113 349.104C200.913 350.605 201.872 352.545 201.78 353.057C201.626 353.921 203.564 353.211 203.815 353.004C204.065 352.796 207.584 353.004 207.786 350.59C207.989 348.177 205.906 346.917 205.906 346.917L206.721 341.666L201.901 341.261L201.954 346.054L201.077 346.425Z" fill="#636780"/>
<path opacity="0.1" d="M201.077 346.425C200.83 346.528 200.607 346.682 200.423 346.876C200.239 347.07 200.097 347.3 200.006 347.552C199.915 347.804 199.878 348.072 199.896 348.339C199.915 348.606 199.988 348.867 200.113 349.104C200.913 350.605 201.872 352.545 201.78 353.057C201.626 353.921 203.564 353.211 203.815 353.004C204.065 352.796 207.584 353.004 207.786 350.59C207.989 348.177 205.906 346.917 205.906 346.917L206.721 341.666L201.901 341.261L201.954 346.054L201.077 346.425Z" fill="black"/>
<path opacity="0.1" d="M202.397 346.329C202.397 346.329 204.027 351.939 203.313 352.122C202.6 352.306 202.397 346.329 202.397 346.329Z" fill="black"/>
<path opacity="0.1" d="M204.229 345.001C204.229 345.001 205.859 350.611 205.146 350.795C204.432 350.978 204.229 345.001 204.229 345.001Z" fill="black"/>
<path d="M223.75 328.108L221.032 344.967C221.032 344.967 217.658 344.509 215.817 344.108C215.411 344.052 215.017 343.93 214.65 343.746C214.554 343.65 214.356 343.659 214.091 343.712C213.185 343.896 211.575 344.644 211.262 344.012C211.239 343.963 211.208 343.919 211.17 343.881C210.852 343.534 210.235 343.785 209.637 343.881C209.312 343.966 208.966 343.921 208.673 343.756C208.191 343.418 207.155 343.959 206.326 344.137C205.801 344.253 205.362 344.229 205.14 343.756C205.061 343.602 204.946 343.469 204.805 343.369C204.664 343.268 204.501 343.202 204.33 343.177C203.55 342.979 202.455 343.114 201.824 342.979C201.573 342.931 201.405 342.834 201.342 342.665C201.217 342.298 200.518 342.124 199.771 341.98C198.86 341.806 197.881 341.676 197.809 341.309C197.809 341.183 197.698 341.13 197.563 341.125C197.058 341.202 196.561 341.325 196.079 341.492C195.674 341.598 195.331 341.598 195.235 341.309C195.139 341.019 194.661 341.019 194.126 341.15C193.697 341.256 193.22 341.425 192.854 341.511C192.488 341.598 192.285 341.598 192.247 341.439C192.112 340.899 190.348 342.124 189.943 341.034C189.538 339.943 183.956 332.713 191.186 323.349C191.186 323.349 193.114 323.484 194.618 323.755C195.117 323.821 195.603 323.958 196.064 324.16C196.58 324.454 197.684 324.392 198.681 324.464C199.183 324.471 199.677 324.59 200.127 324.812C200.306 324.909 200.45 325.061 200.537 325.246C200.764 325.762 201.284 325.869 201.853 325.84C202.624 325.791 203.482 325.502 203.781 325.656H203.81C204.379 325.902 206.509 325.656 206.871 326.018L206.899 326.052C207.054 326.279 207.863 326.052 208.741 325.927C209.401 325.84 210.066 325.83 210.428 326.192C210.801 326.488 211.274 326.629 211.748 326.583C212.326 326.541 212.906 326.564 213.479 326.651C213.611 326.689 213.729 326.765 213.821 326.868C214.163 327.297 214.992 327.239 215.749 327.278C216.127 327.262 216.502 327.356 216.829 327.548C216.946 327.63 217.079 327.686 217.219 327.712C218.26 327.954 220.492 327.548 220.492 327.548L223.75 328.108Z" fill="#636780"/>
<path opacity="0.1" d="M194.126 341.14C193.697 341.246 193.22 341.415 192.853 341.502C187.339 332.935 191.981 326.429 194.593 323.755C195.092 323.822 195.579 323.958 196.039 324.16C190.491 330.56 193.065 338.553 194.126 341.14Z" fill="black"/>
<path opacity="0.1" d="M197.567 341.117C197.062 341.193 196.566 341.316 196.083 341.483C191.364 333.129 196.218 326.878 198.671 324.47C199.173 324.476 199.667 324.595 200.117 324.817C194.839 330.599 196.406 337.796 197.567 341.117Z" fill="black"/>
<path opacity="0.1" d="M201.824 342.97C201.573 342.922 201.404 342.825 201.342 342.656C201.216 342.29 200.518 342.116 199.77 341.971C195.63 334.403 199.332 328.587 201.843 325.846C202.614 325.797 203.472 325.508 203.771 325.662H203.8C197.977 332.231 200.797 340.533 201.824 342.97Z" fill="black"/>
<path opacity="0.1" d="M206.331 344.128C205.806 344.244 205.367 344.22 205.145 343.747C205.066 343.593 204.951 343.46 204.81 343.36C204.669 343.259 204.507 343.193 204.335 343.167C199.515 334.735 204.432 328.432 206.885 326.033L206.914 326.067C207.068 326.294 207.878 326.067 208.755 325.941C201.892 332.877 205.42 342.086 206.331 344.128Z" fill="black"/>
<path opacity="0.1" d="M211.16 343.878C210.842 343.53 210.225 343.781 209.627 343.878C204.595 335.509 209.218 329.186 211.762 326.604C212.34 326.561 212.92 326.584 213.493 326.671C207.617 332.999 210.042 341.064 211.16 343.878Z" fill="black"/>
<path opacity="0.1" d="M215.817 344.109C215.411 344.053 215.017 343.931 214.651 343.747C214.554 343.651 214.357 343.66 214.091 343.713C209.633 336.068 213.19 330.165 215.75 327.303C216.128 327.287 216.503 327.381 216.829 327.573C216.946 327.655 217.079 327.711 217.22 327.737C212.342 334.031 214.805 341.619 215.817 344.109Z" fill="black"/>
<path d="M347.438 389.156C359.659 389.156 369.566 374.548 369.566 356.528C369.566 338.508 359.659 323.9 347.438 323.9C335.216 323.9 325.309 338.508 325.309 356.528C325.309 374.548 335.216 389.156 347.438 389.156Z" fill="#636780"/>
<path opacity="0.1" d="M346.69 383.446C355.576 383.446 362.779 371.606 362.779 357.001C362.779 342.396 355.576 330.556 346.69 330.556C337.804 330.556 330.601 342.396 330.601 357.001C330.601 371.606 337.804 383.446 346.69 383.446Z" fill="black"/>
<path d="M346.69 382.63C355.576 382.63 362.779 370.79 362.779 356.185C362.779 341.58 355.576 329.74 346.69 329.74C337.804 329.74 330.601 341.58 330.601 356.185C330.601 370.79 337.804 382.63 346.69 382.63Z" fill="#F0F0F4"/>
<path d="M349.606 341.705C350.654 341.705 351.505 340.244 351.505 338.442C351.505 336.64 350.654 335.179 349.606 335.179C348.557 335.179 347.707 336.64 347.707 338.442C347.707 340.244 348.557 341.705 349.606 341.705Z" fill="#636780"/>
<path d="M357.213 370.259C358.261 370.259 359.112 368.798 359.112 366.996C359.112 365.194 358.261 363.733 357.213 363.733C356.164 363.733 355.313 365.194 355.313 366.996C355.313 368.798 356.164 370.259 357.213 370.259Z" fill="#636780"/>
<path d="M336.707 356.663C337.756 356.663 338.606 355.202 338.606 353.4C338.606 351.598 337.756 350.138 336.707 350.138C335.658 350.138 334.808 351.598 334.808 353.4C334.808 355.202 335.658 356.663 336.707 356.663Z" fill="#636780"/>
<path d="M342.275 375.694C343.323 375.694 344.174 374.233 344.174 372.431C344.174 370.629 343.323 369.168 342.275 369.168C341.226 369.168 340.375 370.629 340.375 372.431C340.375 374.233 341.226 375.694 342.275 375.694Z" fill="#636780"/>
<path d="M509.413 296.157C509.413 296.157 525.319 338.577 524.486 341.227C524.486 341.227 531.205 345.306 532.834 344.287C534.463 343.269 533.041 324.498 533.041 324.498L529.985 307.982L526.52 298.194L509.413 296.157Z" fill="#F5AB2B"/>
<path d="M359.926 352.584C360.975 352.584 361.825 351.123 361.825 349.321C361.825 347.519 360.975 346.059 359.926 346.059C358.877 346.059 358.027 347.519 358.027 349.321C358.027 351.123 358.877 352.584 359.926 352.584Z" fill="#636780"/>
<path d="M349.606 364.955C352.681 364.955 355.173 361.484 355.173 357.203C355.173 352.922 352.681 349.452 349.606 349.452C346.532 349.452 344.039 352.922 344.039 357.203C344.039 361.484 346.532 364.955 349.606 364.955Z" fill="#636780"/>
<path d="M527.143 352.854C527.143 377.407 518.997 399.759 496.391 397.312C467.88 396.699 465.639 377.407 465.639 352.854C465.639 328.301 479.395 310.028 496.381 310.028C513.367 310.028 527.143 328.296 527.143 352.854Z" fill="#414C5A"/>
<path opacity="0.1" d="M527.31 352.892C527.31 333.885 519.058 318.624 507.447 312.726C492.538 315.564 481.081 332.737 481.081 355.137C481.081 375.259 482.59 391.819 498.824 397.514C519.709 398.267 527.31 376.634 527.31 352.892Z" fill="black"/>
<path d="M539.149 343.269C539.149 343.269 535.076 346.735 532.835 344.288C532.835 344.288 527.335 300.236 520.413 300.033L496.583 299.83C496.583 299.83 493.735 301.051 492.51 306.356L477.086 350.278L392.664 351.494L386.214 337.98L456.071 338.182V338.153C456.447 336.797 468.121 295.062 475.963 289.888C476.229 289.707 476.52 289.566 476.826 289.468C476.826 289.468 505.949 285.606 515.521 288.242C515.521 288.242 525.499 290.486 527.942 293.551V293.575C528.27 293.918 532.049 298.18 533.22 310.468L539.149 343.269Z" fill="#F7BA50"/>
<path d="M487.42 295.138C485.381 298.999 467.87 346.734 467.87 346.734L456.056 338.167V338.138C456.432 336.781 468.106 295.003 475.958 289.872C481.067 290.722 488.803 292.507 487.42 295.138Z" fill="#F9CE82"/>
<path d="M464.611 273.318L455.038 304.72L405.141 303.272L405.546 307.963C405.546 307.963 444.651 313.673 461.347 305.921L470.313 277.237L549.057 277.642L534.057 274.109L464.611 273.318Z" fill="#F7BA50"/>
<path opacity="0.1" d="M230.672 322.805C230.672 322.805 203.925 336.266 223.745 348.912L229.047 350.133C229.047 350.133 209.632 336.136 242.061 322.805H230.672Z" fill="black"/>
<path d="M231.486 322.805C231.486 322.805 204.74 336.266 224.56 348.912L229.862 350.133C229.862 350.133 210.447 336.136 242.876 322.805H231.486Z" fill="#DCE0ED"/>
<path d="M508.19 381.814C516.4 381.814 523.055 370.4 523.055 356.32C523.055 342.24 516.4 330.826 508.19 330.826C499.98 330.826 493.325 342.24 493.325 356.32C493.325 370.4 499.98 381.814 508.19 381.814Z" fill="#636780"/>
<path opacity="0.1" d="M507.689 377.528C513.657 377.528 518.495 368.279 518.495 356.87C518.495 345.461 513.657 336.212 507.689 336.212C501.721 336.212 496.882 345.461 496.882 356.87C496.882 368.279 501.721 377.528 507.689 377.528Z" fill="black"/>
<path d="M507.689 376.713C513.657 376.713 518.495 367.464 518.495 356.055C518.495 344.646 513.657 335.397 507.689 335.397C501.721 335.397 496.882 344.646 496.882 356.055C496.882 367.464 501.721 376.713 507.689 376.713Z" fill="#F0F0F4"/>
<path d="M509.651 344.742C510.356 344.742 510.928 343.6 510.928 342.193C510.928 340.785 510.356 339.644 509.651 339.644C508.945 339.644 508.373 340.785 508.373 342.193C508.373 343.6 508.945 344.742 509.651 344.742Z" fill="#636780"/>
<path d="M514.76 367.051C515.466 367.051 516.038 365.909 516.038 364.502C516.038 363.094 515.466 361.953 514.76 361.953C514.054 361.953 513.482 363.094 513.482 364.502C513.482 365.909 514.054 367.051 514.76 367.051Z" fill="#636780"/>
<path d="M500.984 356.428C501.69 356.428 502.262 355.287 502.262 353.879C502.262 352.471 501.69 351.33 500.984 351.33C500.278 351.33 499.706 352.471 499.706 353.879C499.706 355.287 500.278 356.428 500.984 356.428Z" fill="#636780"/>
<path d="M504.724 371.298C505.429 371.298 506.001 370.157 506.001 368.749C506.001 367.341 505.429 366.2 504.724 366.2C504.018 366.2 503.446 367.341 503.446 368.749C503.446 370.157 504.018 371.298 504.724 371.298Z" fill="#636780"/>
<path d="M516.582 353.242C517.288 353.242 517.86 352.101 517.86 350.693C517.86 349.285 517.288 348.144 516.582 348.144C515.876 348.144 515.304 349.285 515.304 350.693C515.304 352.101 515.876 353.242 516.582 353.242Z" fill="#636780"/>
<path d="M509.65 362.903C511.715 362.903 513.39 360.194 513.39 356.851C513.39 353.508 511.715 350.798 509.65 350.798C507.584 350.798 505.909 353.508 505.909 356.851C505.909 360.194 507.584 362.903 509.65 362.903Z" fill="#636780"/>
<path d="M292.311 242.939C292.311 242.939 337.527 244.57 396.177 260.681L292.311 242.939Z" fill="#F7BA50"/>
<path d="M508.03 163.673C508.03 163.673 505.577 164.069 506.854 167.312C508.132 170.556 508.344 172.23 508.344 172.23C508.344 172.23 510.802 173.509 510.701 169.277C510.6 165.044 508.03 163.673 508.03 163.673Z" fill="#A0ABB8"/>
<path d="M387.767 229.424L387.738 229.463C387.224 230.105 386.891 230.873 386.774 231.688C386.379 234.265 386.003 239.546 389.748 238.672C391.855 238.201 393.788 237.15 395.329 235.636C395.753 235.186 396.081 234.655 396.294 234.074C396.507 233.493 396.6 232.875 396.568 232.258C396.572 231.677 396.433 231.105 396.163 230.591C395.893 230.078 395.501 229.639 395.021 229.313L393.628 228.512C393.235 228.278 392.783 228.161 392.326 228.174L389.916 228.261C389.497 228.294 389.089 228.414 388.718 228.614C388.348 228.815 388.024 229.091 387.767 229.424Z" fill="#FBE1B3"/>
<path d="M454.808 196.088C455.049 205.741 451.188 212.329 448.301 213.946C445.414 215.562 439.65 212.018 437.697 209.361C435.743 206.703 433.595 203.283 431.913 200.431C429.262 198.742 429.198 197.374 429.985 194.157C430.771 190.94 433.396 185.684 436.203 183.933C439.011 182.181 442.391 181.599 445.622 182.311C448.852 183.022 451.677 184.971 453.491 187.74C455.306 190.509 455.29 191.744 455.049 194.881C455.049 194.881 454.923 195.701 454.808 196.088Z" fill="#FBE1B3"/>
<path d="M432.298 197.863C432.954 198.056 433.537 197.381 433.841 196.782C434.602 195.214 434.805 193.437 435.451 191.816C436.116 190.105 437.228 188.605 438.67 187.472C438.873 187.291 439.111 187.155 439.369 187.071C440.034 186.897 440.69 187.351 441.365 187.477C442.907 187.766 444.257 186.333 445.838 186.226C446.401 186.214 446.959 186.345 447.459 186.607C447.959 186.868 448.384 187.252 448.696 187.723C449.315 188.672 449.636 189.785 449.617 190.918C449.617 191.401 449.617 191.98 449.973 192.327C450.426 192.771 451.173 192.588 451.795 192.733C452.894 192.993 453.405 194.214 453.926 195.218C454.446 196.222 455.492 197.274 456.538 196.84C456.851 196.71 457.107 196.454 457.43 196.357C458.023 196.16 458.731 196.483 459.261 196.155C459.936 195.74 459.743 194.707 459.305 194.017C458.866 193.326 458.341 192.569 458.616 191.83C458.793 191.472 459.04 191.154 459.343 190.894C460.118 189.998 460.52 188.839 460.468 187.655C460.416 186.471 459.914 185.352 459.064 184.528C458.635 184.141 458.134 183.842 457.714 183.446C456.871 182.655 456.422 181.545 455.786 180.55C455.012 179.35 453.958 178.357 452.716 177.654C452.174 177.32 451.565 177.107 450.932 177.032C450.06 176.964 449.202 177.292 448.33 177.379C445.409 177.674 442.897 175.362 440.039 174.705C439.715 174.599 439.372 174.565 439.033 174.605C438.694 174.645 438.368 174.758 438.077 174.937C437.509 175.381 437.388 176.178 437.113 176.868C436.54 178.345 435.152 179.378 433.677 179.947C431.975 180.599 429.821 180.951 429.112 182.626C428.495 184.074 429.295 185.734 428.972 187.259C428.722 188.452 427.83 189.383 427.141 190.387C426.452 191.391 425.945 192.742 426.543 193.804C426.913 194.375 427.463 194.805 428.105 195.025C428.905 195.354 430.688 195.18 431.228 195.711C431.768 196.242 431.276 197.569 432.298 197.863Z" fill="#1D232B"/>
<path fill-rule="evenodd" clip-rule="evenodd" d="M466.536 255.848C466.536 255.848 467.381 298.066 468.405 301.51C468.906 303.194 473.768 308.882 477.24 312.251C478.634 313.604 477.744 314.876 477.085 315.142C471.725 317.302 469.136 313.218 465.272 310.547C461.039 307.621 460.396 313.726 457.029 311.471C458.577 309.155 461.991 304.938 461.277 301.662C460.801 299.479 454.824 253.887 454.824 253.887L466.536 255.848Z" fill="#FBE1B3"/>
<path fill-rule="evenodd" clip-rule="evenodd" d="M444.077 214.912C444.077 214.912 473.197 240.009 472.265 288.177C472.134 294.931 468.182 295.732 468.212 298.77L459.979 299.593C460.35 297.424 454.535 295.506 453.958 289.612C451.98 269.425 440.078 217.402 440.078 217.402L444.077 214.912Z" fill="#2F3676"/>
<path d="M86.3513 463C134.042 463 172.703 456.373 172.703 448.198C172.703 440.023 134.042 433.396 86.3513 433.396C38.6608 433.396 0 440.023 0 448.198C0 456.373 38.6608 463 86.3513 463Z" fill="#F2F2F2"/>
<path d="M20.1003 400.023C17.0857 405.894 15.6777 412.459 16.0194 419.051C16.3612 425.644 18.4406 432.028 22.0462 437.555C23.2291 439.331 24.3173 440.61 25.1868 440.947C29.3565 442.587 37.7077 446.619 37.7077 446.619L57.8169 438.709C57.8169 438.709 61.0817 421.421 64.169 406.577C66.2746 396.453 68.3092 387.471 69.1431 385.896C71.225 382.018 69.1431 339.798 69.1431 339.798C69.1431 339.798 49.0339 338.448 43.5039 353.966L41.0849 358.703L20.1003 400.023Z" fill="#BBC5D0"/>
<path opacity="0.1" d="M46.7984 404.689C59.0236 418.715 64.1811 406.583 64.1811 406.583C66.2866 396.459 68.3212 387.477 69.1551 385.902C71.237 382.024 69.1551 339.804 69.1551 339.804C69.1551 339.804 49.0459 338.454 43.5159 353.972L41.0969 358.708C39.5473 371.124 38.0154 394.594 46.7984 404.689Z" fill="white"/>
<path d="M49.4829 443.783L120.457 435.577L133.119 352.166L123.544 330.502C119.498 321.276 113.896 312.816 106.983 305.493C102.163 300.407 96.3374 295.517 90.21 293.06C89.3726 292.722 88.5177 292.429 87.649 292.183C86.6503 291.88 85.5942 291.816 84.5664 291.999C83.5387 292.181 82.5684 292.603 81.7345 293.231C72.9811 299.442 69.8524 325.849 68.841 338.56C68.4249 343.784 67.72 348.98 66.7295 354.126L49.4829 443.783Z" fill="#BBC5D0"/>
<path opacity="0.1" d="M96.7341 351.266L81.9479 387.679C89.6958 382.007 101.176 351.118 101.176 351.118L111.461 386.335L103.264 349.218C104.464 341.158 104.813 332.993 104.305 324.86C103.654 315.541 94.9183 300.585 90.1749 293.054C89.3376 292.716 88.4827 292.424 87.6139 292.178C86.6153 291.874 85.5591 291.811 84.5314 291.993C83.5036 292.175 82.5333 292.597 81.6995 293.226C85.4256 300.715 94.7409 319.443 97.5798 325.008C101.182 332.018 96.7341 351.266 96.7341 351.266Z" fill="white"/>
<path d="M108.805 446.619H147.314C148.898 446.619 150.466 446.297 151.922 445.672C153.378 445.047 154.691 444.132 155.783 442.983C156.874 441.834 157.721 440.474 158.271 438.987C158.821 437.501 159.064 435.917 158.984 434.333C158.132 417.803 155.973 388.329 150.839 369.62C148.065 359.525 144.842 354.226 141.885 351.615C140.498 350.275 138.708 349.432 136.792 349.217C135.34 349.092 133.886 349.445 132.652 350.224C125.502 357.086 117.15 393.196 117.15 393.196L108.805 446.619Z" fill="#BBC5D0"/>
<path opacity="0.1" d="M144.357 414.594C145.942 418.993 146.569 424.067 144.357 429.011L135.775 433.256C135.775 433.256 112.708 423.469 115.512 403.41C115.512 403.41 116.269 399.265 124.212 399.585C128.679 399.801 132.981 401.344 136.569 404.017C140.156 406.69 142.868 410.372 144.357 414.594Z" fill="white"/>
<path d="M98.6737 392.901L117.742 419.011L121.048 440.563L108.793 446.619L91.1268 450.527C89.4254 450.905 87.6759 451.019 85.9398 450.865L37.731 446.619L44.2901 431.397L66.9425 399.562L98.6737 392.901Z" fill="#BBC5D0"/>
<path opacity="0.1" d="M91.2926 383.937C91.2926 383.937 104.304 384.831 99.4191 407.211C94.5337 429.591 44.2666 431.385 44.2666 431.385C44.2666 431.385 54.9481 412.439 71.3785 398.863C73.2239 397.341 75.0041 395.754 76.7016 394.061C80.4809 390.278 87.7084 383.629 91.2926 383.937Z" fill="white"/>
<path opacity="0.05" d="M102.997 400.811C102.997 400.811 120.628 416.874 118.966 441.593L102.997 400.811Z" fill="black"/>
<path opacity="0.05" d="M132.658 350.224C132.658 350.224 114.158 374.854 112.082 412.753L132.658 350.224Z" fill="black"/>
<path opacity="0.05" d="M69.1605 339.786C69.1605 339.786 78.115 380.491 55.7583 411.172L69.1605 339.786Z" fill="black"/>
<path opacity="0.1" d="M51.1127 205.17C50.4385 205.603 49.4389 205.46 48.605 205.271C45.3165 204.537 41.685 204.01 38.6864 205.419C38.6817 204.888 38.8119 204.364 39.0649 203.897C39.4967 203.175 40.4193 203.027 41.1764 202.826C43.7173 202.168 46.3548 201.968 48.9658 202.234C49.1951 202.223 49.4218 202.287 49.6117 202.416C49.8016 202.545 49.9444 202.732 50.0185 202.95C50.4148 203.655 50.7578 204.412 51.1127 205.17Z" fill="black"/>
<defs>
<linearGradient id="paint0_linear" x1="325.915" y1="287.86" x2="325.915" y2="220.148" gradientUnits="userSpaceOnUse">
<stop stop-color="#808080" stop-opacity="0.25"/>
<stop offset="0.54" stop-color="#808080" stop-opacity="0.12"/>
<stop offset="1" stop-color="#808080" stop-opacity="0.1"/>
</linearGradient>
</defs>
</svg>
