<svg width="36" height="36" viewBox="0 0 36 36" fill="none" xmlns="http://www.w3.org/2000/svg">
<g clip-path="url(#clip0_1526_55710)">
<path d="M1.79883 1.85425V34.1457C1.79883 35.1698 2.629 36 3.65308 36H33.2769C34.3009 36 35.1311 35.1698 35.1311 34.1457V10.8542C35.1311 9.83017 34.3009 9 33.2769 9H22.4122V1.85425C22.4122 0.830175 21.582 0 20.558 0H3.65308C2.629 0 1.79883 0.830175 1.79883 1.85425Z" fill="white"/>
<path d="M22.4122 9H22.0789V9.33333H22.4122V9ZM2.13216 34.1457V1.85425H1.46549V34.1457H2.13216ZM3.65308 0.333334H20.558V-0.333334H3.65308V0.333334ZM22.0789 1.85425V9H22.7456V1.85425H22.0789ZM22.4122 9.33333H33.2769V8.66667H22.4122V9.33333ZM34.7978 10.8542V34.1457H35.4644V10.8542H34.7978ZM33.2769 35.6667H3.65308V36.3333H33.2769V35.6667ZM33.2769 9.33333C34.1168 9.33333 34.7978 10.0143 34.7978 10.8542H35.4644C35.4644 9.64608 34.485 8.66667 33.2769 8.66667V9.33333ZM20.558 0.333334C21.3979 0.333334 22.0789 1.01427 22.0789 1.85425H22.7456C22.7456 0.64608 21.7661 -0.333334 20.558 -0.333334V0.333334ZM2.13216 1.85425C2.13216 1.01427 2.8131 0.333334 3.65308 0.333334V-0.333334C2.44491 -0.333334 1.46549 0.64608 1.46549 1.85425H2.13216ZM34.7978 34.1457C34.7978 34.9857 34.1168 35.6667 33.2769 35.6667V36.3333C34.485 36.3333 35.4644 35.3539 35.4644 34.1457H34.7978ZM1.46549 34.1457C1.46549 35.3539 2.44491 36.3333 3.65308 36.3333V35.6667C2.8131 35.6667 2.13216 34.9857 2.13216 34.1457H1.46549Z" fill="#FCF8FF"/>
<path fill-rule="evenodd" clip-rule="evenodd" d="M11.6933 12.6468C11.6933 13.1164 11.3573 13.492 10.9373 13.492C10.525 13.492 10.1814 13.1164 10.1814 12.6468V10.7769C10.1814 10.3073 10.5174 9.93164 10.9373 9.93164C11.3573 9.93164 11.6933 10.3073 11.6933 10.7769V12.6468ZM7.72964 12.6478C7.72964 13.1174 7.39367 13.493 6.9737 13.493C6.55374 13.493 6.21777 13.1174 6.21777 12.6478V10.7779C6.21777 10.3083 6.55374 9.93265 6.9737 9.93265C7.39367 9.93265 7.72964 10.3083 7.72964 10.7779V12.6478ZM10.9373 25.9544C11.3573 25.9544 11.6933 25.5787 11.6933 25.1091V23.2393C11.6933 22.7697 11.3573 22.394 10.9373 22.394C10.5174 22.394 10.1814 22.7697 10.1814 23.2393V25.1091C10.1814 25.5787 10.5174 25.9544 10.9373 25.9544ZM6.9737 32.1831C7.39367 32.1831 7.72964 31.8074 7.72964 31.3378V29.468C7.72964 28.9984 7.39367 28.6227 6.9737 28.6227C6.55374 28.6227 6.21777 28.9984 6.21777 29.468V31.3378C6.21777 31.8074 6.55374 32.1831 6.9737 32.1831ZM6.9737 19.7227C7.39367 19.7227 7.72964 19.347 7.72964 18.8775V17.0076C7.72964 16.538 7.39367 16.1623 6.9737 16.1623C6.55374 16.1623 6.21777 16.538 6.21777 17.0076V18.8775C6.21777 19.347 6.55374 19.7227 6.9737 19.7227ZM7.72964 25.1091C7.72964 25.5787 7.39367 25.9544 6.9737 25.9544C6.55374 25.9544 6.21777 25.5787 6.21777 25.1091V23.2393C6.21777 22.7697 6.55374 22.394 6.9737 22.394C7.39367 22.394 7.72964 22.7697 7.72964 23.2393V25.1091ZM10.9373 19.7227C11.3573 19.7227 11.6933 19.347 11.6933 18.8775V17.0076C11.6933 16.538 11.3573 16.1623 10.9373 16.1623C10.5174 16.1623 10.1814 16.538 10.1814 17.0076V18.8775C10.1814 19.347 10.5174 19.7227 10.9373 19.7227Z" fill="#A766E8"/>
<rect x="24.0576" y="9.73438" width="10.8571" height="24.5223" fill="white"/>
<path fill-rule="evenodd" clip-rule="evenodd" d="M7.72964 5.52664C7.72964 5.99624 7.39367 6.37192 6.9737 6.37192C6.55374 6.37192 6.21777 5.99624 6.21777 5.52664V3.6568C6.21777 3.1872 6.55374 2.81152 6.9737 2.81152C7.39367 2.81152 7.72964 3.1872 7.72964 3.6568V5.52664ZM27.0851 15.8548H32.0101C32.4301 15.8548 32.766 15.5278 32.766 15.1189C32.766 14.71 32.4301 14.383 32.0101 14.383H27.0851C26.6651 14.383 26.3292 14.71 26.3292 15.1189C26.3292 15.5278 26.6651 15.8548 27.0851 15.8548ZM27.0851 20.3056H32.0101C32.4301 20.3056 32.766 19.9785 32.766 19.5697C32.766 19.1608 32.4301 18.8337 32.0101 18.8337H27.0851C26.6651 18.8337 26.3292 19.1608 26.3292 19.5697C26.3292 19.9785 26.6651 20.3056 27.0851 20.3056ZM32.0101 24.7554H27.0851C26.6651 24.7554 26.3292 24.4209 26.3292 24.0195C26.3292 23.6106 26.6651 23.2835 27.0851 23.2835H32.0101C32.4301 23.2835 32.766 23.6106 32.766 24.0195C32.766 24.4283 32.4301 24.7554 32.0101 24.7554ZM27.0851 29.2062H32.0101C32.4301 29.2062 32.766 28.8791 32.766 28.4702C32.766 28.0614 32.4301 27.7343 32.0101 27.7343H27.0851C26.6651 27.7343 26.3292 28.0614 26.3292 28.4702C26.3292 28.8791 26.6651 29.2062 27.0851 29.2062ZM10.9373 6.37192C11.3573 6.37192 11.6933 5.99624 11.6933 5.52664V3.6568C11.6933 3.1872 11.3573 2.81152 10.9373 2.81152C10.5174 2.81152 10.1814 3.1872 10.1814 3.6568V5.52664C10.1814 5.99624 10.5174 6.37192 10.9373 6.37192ZM15.6529 5.52664C15.6529 5.99624 15.3169 6.37192 14.8969 6.37192C14.4846 6.37192 14.141 5.99624 14.141 5.52664V3.6568C14.141 3.1872 14.477 2.81152 14.8969 2.81152C15.3169 2.81152 15.6529 3.1872 15.6529 3.6568V5.52664ZM18.8605 6.37192C19.2805 6.37192 19.6165 5.99624 19.6165 5.52664V3.6568C19.6165 3.1872 19.2805 2.81152 18.8605 2.81152C18.4406 2.81152 18.1046 3.1872 18.1046 3.6568V5.52664C18.1046 5.99624 18.4406 6.37192 18.8605 6.37192ZM15.6529 12.6483C15.6529 13.1179 15.3169 13.4936 14.8969 13.4936C14.4846 13.4936 14.141 13.1179 14.141 12.6483V10.7784C14.141 10.3089 14.477 9.93318 14.8969 9.93318C15.3169 9.93318 15.6529 10.3089 15.6529 10.7784V12.6483ZM18.8605 13.4343C19.2805 13.4343 19.6165 13.0586 19.6165 12.589V10.7192C19.6165 10.2496 19.2805 9.87391 18.8605 9.87391C18.4406 9.87391 18.1046 10.2496 18.1046 10.7192V12.589C18.1046 13.0586 18.4406 13.4343 18.8605 13.4343ZM15.6529 18.877C15.6529 19.3466 15.3169 19.7222 14.8969 19.7222C14.4846 19.7222 14.141 19.338 14.141 18.877V17.0071C14.141 16.5375 14.477 16.1619 14.8969 16.1619C15.3169 16.1619 15.6529 16.5375 15.6529 17.0071V18.877ZM18.8605 19.7222C19.2805 19.7222 19.6165 19.3466 19.6165 18.877V17.0071C19.6165 16.5375 19.2805 16.1619 18.8605 16.1619C18.4406 16.1619 18.1046 16.5375 18.1046 17.0071V18.877C18.1046 19.338 18.4406 19.7222 18.8605 19.7222ZM15.6529 25.1077C15.6529 25.5773 15.3169 25.9529 14.8969 25.9529C14.4846 25.9529 14.141 25.5773 14.141 25.1077V23.2378C14.141 22.7682 14.477 22.3926 14.8969 22.3926C15.3169 22.3926 15.6529 22.7682 15.6529 23.2378V25.1077ZM18.8605 25.9529C19.2805 25.9529 19.6165 25.5773 19.6165 25.1077V23.2378C19.6165 22.7682 19.2805 22.3926 18.8605 22.3926C18.4406 22.3926 18.1046 22.7682 18.1046 23.2378V25.1077C18.1046 25.5773 18.4406 25.9529 18.8605 25.9529ZM11.7535 31.3424C11.7535 31.8109 11.4176 32.1856 10.9976 32.1856C10.5776 32.1856 10.2417 31.8023 10.2417 31.3424V29.4685C10.2417 29 10.5776 28.6253 10.9976 28.6253C11.4176 28.6253 11.7535 29 11.7535 29.4685V31.3424ZM15.0175 32.0993C15.4374 32.0993 15.7734 31.7245 15.7734 31.256V29.3821C15.7734 28.9136 15.4374 28.5389 15.0175 28.5389C14.5975 28.5389 14.2615 28.9136 14.2615 29.3821V31.256C14.2615 31.716 14.6051 32.0993 15.0175 32.0993ZM19.7973 31.256C19.7973 31.7245 19.4613 32.0993 19.0413 32.0993C18.6214 32.0993 18.2854 31.716 18.2854 31.256V29.3821C18.2854 28.9136 18.6214 28.5389 19.0413 28.5389C19.4613 28.5389 19.7973 28.9136 19.7973 29.3821V31.256Z" fill="#A766E8"/>
<path opacity="0.2" d="M18.4648 0H20.5688C21.5929 0 22.4231 0.830175 22.4231 1.85425V35.5909H18.4648V0Z" fill="#E8D1FA"/>
<path opacity="0.2" d="M22.4248 9H33.7421C34.5101 9 35.1327 9.62263 35.1327 10.3907V34.1457C35.1327 35.1698 34.3026 36 33.2785 36H22.4248V9Z" fill="#E8D1FA"/>
</g>
<defs>
<clipPath id="clip0_1526_55710">
<rect width="36" height="36" fill="white"/>
</clipPath>
</defs>
</svg>
