<svg width="36" height="36" viewBox="0 0 36 36" fill="none" xmlns="http://www.w3.org/2000/svg">
<path d="M18.0017 1.79166C13.268 1.79166 9.29335 5.39697 9.29335 10.0149H11.71C11.71 6.88135 14.4479 4.20834 18.0017 4.20834V1.79166ZM26.7101 10.0149C26.7101 5.39697 22.7355 1.79166 18.0017 1.79166V4.20834C21.5556 4.20834 24.2935 6.88135 24.2935 10.0149H26.7101ZM18.0017 18.2381C22.7355 18.2381 26.7101 14.6328 26.7101 10.0149H24.2935C24.2935 13.1484 21.5556 15.8214 18.0017 15.8214V18.2381ZM9.29335 10.0149C9.29335 14.6328 13.268 18.2381 18.0017 18.2381V15.8214C14.4479 15.8214 11.71 13.1484 11.71 10.0149H9.29335ZM18.0001 19.5154C15.3562 19.5154 11.4623 20.1276 8.19873 21.3504C6.56763 21.9615 5.01565 22.7538 3.85017 23.7599C2.6806 24.7695 1.79166 26.0967 1.79166 27.7387H4.20834C4.20834 27.0482 4.56863 26.3323 5.42935 25.5893C6.29415 24.8427 7.55352 24.1729 9.04666 23.6134C12.0316 22.495 15.6377 21.9321 18.0001 21.9321V19.5154ZM34.2086 27.7387C34.2086 26.0967 33.3196 24.7695 32.15 23.7599C30.9846 22.7538 29.4326 21.9615 27.8015 21.3504C24.538 20.1276 20.644 19.5154 18.0001 19.5154V21.9321C20.3625 21.9321 23.9686 22.495 26.9535 23.6134C28.4467 24.1729 29.7061 24.8427 30.5709 25.5893C31.4316 26.3323 31.7919 27.0482 31.7919 27.7387H34.2086ZM34.2086 28.4664V27.7387H31.7919V28.4664H34.2086ZM7.53341 34.2082H28.4668V31.7915H7.53341V34.2082ZM1.79166 27.7387V28.4664H4.20834V27.7387H1.79166ZM7.53341 31.7915C5.69702 31.7915 4.20834 30.3028 4.20834 28.4664H1.79166C1.79166 31.6375 4.36233 34.2082 7.53341 34.2082V31.7915ZM31.7919 28.4664C31.7919 30.3028 30.3032 31.7915 28.4668 31.7915V34.2082C31.6379 34.2082 34.2086 31.6375 34.2086 28.4664H31.7919Z" fill="#2C75DD"/>
</svg>
