<svg width="120" height="60" viewBox="0 0 120 60" fill="none" xmlns="http://www.w3.org/2000/svg">
<path fill-rule="evenodd" clip-rule="evenodd" d="M47.781 23.5998H49.002V18.3576L49.0203 18.3393L50.7349 23.5998H51.9559L53.6705 18.3393H53.6881V23.5998H54.9091V17.2244H52.8678L51.3546 22.0569H51.3356L49.8237 17.2244H47.781V23.5998Z" fill="#1A1919"/>
<path fill-rule="evenodd" clip-rule="evenodd" d="M58.0928 23.5998H59.3687V17.2244H58.0928V23.5998Z" fill="#1A1919"/>
<path fill-rule="evenodd" clip-rule="evenodd" d="M62.5295 23.5998H63.7512V18.8323H63.7695L66.2041 23.5998H67.7634V17.2244H66.5404V21.9925H66.5228L64.0984 17.2244H62.5295V23.5998Z" fill="#1A1919"/>
<path fill-rule="evenodd" clip-rule="evenodd" d="M70.958 23.5998H72.2339V17.2244H70.958V23.5998Z" fill="#1A1919"/>
<path fill-rule="evenodd" clip-rule="evenodd" d="M78.6284 17.3444C78.1626 17.1884 77.6521 17.1158 77.1057 17.1158C75.9837 17.1158 74.8806 17.6353 74.8806 19.0615C74.8806 21.1712 77.6698 20.6681 77.6698 21.8826C77.6698 22.4584 77.023 22.7052 76.5403 22.7052C76.0379 22.7052 75.5376 22.5499 75.0996 22.3126L74.981 23.4628C75.6094 23.6187 75.9199 23.7089 76.6128 23.7089C77.8982 23.7089 79.0013 23.1806 79.0013 21.7823C79.0013 19.6447 76.2121 20.1113 76.2121 19.0052C76.2121 18.3114 76.7762 18.1195 77.2155 18.1195C77.661 18.1195 78.1084 18.2199 78.5091 18.3935L78.6284 17.3444Z" fill="#1A1919"/>
<path fill-rule="evenodd" clip-rule="evenodd" d="M82.3682 23.5998H83.6441V18.2301H85.4678V17.2244H80.5444V18.2301H82.3682V23.5998Z" fill="#1A1919"/>
<path fill-rule="evenodd" clip-rule="evenodd" d="M88.68 18.2301H89.0996C89.7376 18.2301 90.4488 18.2931 90.4488 19.0615C90.4488 19.8556 89.7288 19.9472 89.0996 19.9472H88.68V18.2301ZM87.4041 23.5997H88.68V20.9508H89.0902C89.6278 20.9508 89.7918 21.1346 89.9756 21.61L90.7403 23.5997H92.1627L91.1424 21.1061C91.0142 20.8234 90.8135 20.4761 90.4671 20.4497V20.43C91.2793 20.3208 91.7796 19.701 91.7796 18.9509C91.7796 17.1789 90.1478 17.2244 88.7803 17.2244H87.4041V23.5997Z" fill="#1A1919"/>
<path fill-rule="evenodd" clip-rule="evenodd" d="M95.669 23.5998H96.945V21.0797L99.2236 17.2244H97.8751L96.3423 19.9017L94.8392 17.2244H93.345L95.669 21.0797V23.5998Z" fill="#1A1919"/>
<path fill-rule="evenodd" clip-rule="evenodd" d="M107.143 20.3948C107.143 22.3492 108.218 23.7089 110.261 23.7089C112.275 23.7089 113.378 22.3214 113.378 20.3948C113.378 18.4667 112.257 17.1158 110.261 17.1158C108.237 17.1158 107.143 18.4396 107.143 20.3948ZM108.474 20.3948C108.474 19.271 108.994 18.1195 110.261 18.1195C111.528 18.1195 112.048 19.271 112.048 20.3948C112.048 21.5449 111.565 22.7052 110.261 22.7052C108.957 22.7052 108.474 21.5449 108.474 20.3948Z" fill="#1A1919"/>
<path fill-rule="evenodd" clip-rule="evenodd" d="M115.705 23.5998H116.981V20.8051H119.132V19.8007H116.981V18.2301H119.242V17.2244H115.705V23.5998Z" fill="#1A1919"/>
<path fill-rule="evenodd" clip-rule="evenodd" d="M47.781 36.2711H49.4102V29.2813L49.4339 29.2569L51.7193 36.2711H53.3478L55.6332 29.2569H55.6576V36.2711H57.2861V27.7704H54.5634L52.5458 34.2122H52.5213L50.5037 27.7704H47.781V36.2711Z" fill="#1A1919"/>
<path fill-rule="evenodd" clip-rule="evenodd" d="M64.0624 32.9834H61.583L62.8115 29.4753H62.8359L64.0624 32.9834ZM58.5925 36.2711H60.3552L61.0963 34.3221H64.5363L65.2664 36.2711H67.1498L63.819 27.7704H61.8996L58.5925 36.2711Z" fill="#1A1919"/>
<path fill-rule="evenodd" clip-rule="evenodd" d="M68.3484 36.2711H69.9789V29.9141H70.0026L73.2474 36.2711H75.326V27.7704H73.6969V34.1281H73.6738L70.4399 27.7704H68.3484V36.2711Z" fill="#1A1919"/>
<path fill-rule="evenodd" clip-rule="evenodd" d="M79.2014 29.1104H79.7973C80.6726 29.1104 81.4136 29.4509 81.4136 30.4383C81.4136 31.4236 80.6482 31.7044 79.7973 31.7044H79.2014V29.1104ZM77.499 36.2711H79.2014V33.0431H79.9187C81.7411 33.0431 83.1878 32.3242 83.1878 30.3399C83.1878 28.3061 81.499 27.7704 79.6509 27.7704H77.499V36.2711Z" fill="#1A1919"/>
<path fill-rule="evenodd" clip-rule="evenodd" d="M84.1641 31.9967C84.1641 34.6029 85.5986 36.4176 88.3207 36.4176C91.0068 36.4176 92.478 34.5662 92.478 31.9967C92.478 29.4271 90.983 27.6239 88.3207 27.6239C85.623 27.6239 84.1641 29.3905 84.1641 31.9967ZM85.9383 31.9967C85.9383 30.4979 86.6312 28.9639 88.3207 28.9639C90.0108 28.9639 90.703 30.4979 90.703 31.9967C90.703 33.5307 90.0603 35.0769 88.3207 35.0769C86.583 35.0769 85.9383 33.5307 85.9383 31.9967Z" fill="#1A1919"/>
<path fill-rule="evenodd" clip-rule="evenodd" d="M95.3702 36.2711H97.5709L99.078 29.4753H99.1024L100.634 36.2711H102.821L105.034 27.7704H103.381L101.789 34.5662H101.764L100.269 27.7704H97.9587L96.5133 34.5662H96.4888L94.9085 27.7704H93.1221L95.3702 36.2711Z" fill="#1A1919"/>
<path fill-rule="evenodd" clip-rule="evenodd" d="M106.361 36.2711H111.394V34.9311H108.064V32.5446H111.09V31.2046H108.064V29.1104H111.369V27.7704H106.361V36.2711Z" fill="#1A1919"/>
<path fill-rule="evenodd" clip-rule="evenodd" d="M114.849 29.1105H115.409C116.259 29.1105 117.207 29.1952 117.207 30.2186C117.207 31.2779 116.247 31.3999 115.409 31.3999H114.849V29.1105ZM113.148 36.2712H114.849V32.74H115.396C116.113 32.74 116.331 32.9834 116.575 33.6155L117.597 36.2712H119.493L118.131 32.9461C117.961 32.5691 117.693 32.1059 117.232 32.0693V32.0442C118.314 31.8991 118.982 31.071 118.982 30.0721C118.982 27.71 116.805 27.7704 114.984 27.7704H113.148V36.2712Z" fill="#1A1919"/>
<path fill-rule="evenodd" clip-rule="evenodd" d="M16.7673 7.28255C7.7829 18.934 6.17883 35.5652 14.6907 45.4962C9.20053 32.3555 14.2527 18.3922 20.7056 9.65679C21.6439 8.47001 21.53 7.07503 20.4188 6.30396C18.5666 5.01817 17.17 6.76036 16.7673 7.28255Z" fill="#0072A3"/>
<path fill-rule="evenodd" clip-rule="evenodd" d="M26.1626 18.3535C18.5958 29.9236 17.7558 45.0052 26.1992 54.4025C27.2548 55.5764 28.4745 56.5373 29.9545 57.4929C30.1979 57.6536 31.2453 58.1636 32.2365 58.4803C34.3653 59.1591 36.1843 58.6959 37.0989 57.9594C35.4752 58.2029 33.4392 58.3107 31.0243 56.3793C21.928 49.104 22.5565 32.074 30.2921 20.5372C30.3775 20.4049 31.3403 18.5196 29.6094 17.379C28.1599 16.4228 26.8406 17.3173 26.1626 18.3535Z" fill="#0072A3"/>
<path fill-rule="evenodd" clip-rule="evenodd" d="M24.7628 7.88469C15.2455 18.9068 8.95396 38.2792 21.7838 52.469C15.6767 41.3018 15.8618 26.804 28.8916 10.8767C29.6719 9.75981 29.7316 8.33906 28.438 7.3225C27.1431 6.3039 25.6618 6.92306 24.7628 7.88469Z" fill="#0072A3"/>
<path fill-rule="evenodd" clip-rule="evenodd" d="M9.83181 16.5584C9.83181 16.5584 8.95385 19.0269 8.84605 19.5206C0.751813 15.8368 0.877915 20.7908 3.18097 26.0635C0.25283 23.5204 -3.5648 12.3789 9.83181 16.5584Z" fill="#EA8A2D"/>
<path fill-rule="evenodd" clip-rule="evenodd" d="M28.8982 3.87746C28.8982 2.10475 30.3348 0.667725 32.1063 0.667725C33.8785 0.667725 35.3151 2.10475 35.3151 3.87746C35.3151 5.64949 33.8785 7.08652 32.1063 7.08652C30.3348 7.08652 28.8982 5.64949 28.8982 3.87746Z" fill="#0072A3"/>
<path fill-rule="evenodd" clip-rule="evenodd" d="M30.3559 24.2406C52.6583 38.7736 43.0874 59.311 34.2108 56.3515C32.3607 55.7344 31.2196 54.2228 31.1885 53.7915C32.1546 54.7389 33.2556 55.3641 34.1539 55.611C43.8535 58.2633 45.8332 37.0612 28.8447 27.5561C29.3688 26.0757 30.0474 24.8259 30.3559 24.2406Z" fill="#EA8A2D"/>
</svg>
