<svg xmlns="http://www.w3.org/2000/svg" width="16" height="19" viewBox="0 0 16 19">
  <g fill="#DE1F26">
    <path d="M3.9806627 2.54948338C5.07281085 2.57758755 6.27794665 2.49169172 7.29325529 2.59619172 7.97394665 3.3334313 7.00150221 4.27056672 5.89374912 4.08788963 6.34451455 4.85738963 6.0177985 6.0409313 5.56703307 6.5111813 4.29039109 7.84019172 1.5806627 6.47832713.668070107 7.8162438.170865168 7.43307713.0399812177 6.18402505.434963934 5.5789938.666568872 6.3009938 2.78301332 6.5088063 2.67456887 5.53248338 2.59140838 4.79326463.825363934 5.0576813.388544181 5.39275422.328099736 4.93022297-.0830410045 4.52528547.0150528226 4.08788963.1097906 3.67048338.575882452 3.81634797.808257761 3.48226463.706825662 3.22022297.314351588 3.5673688.248158995 3.48226463.239605909 2.27675422 1.84618369 2.6850563 2.90771455 2.54948338 3.11136887 2.9261188 3.82406023 3.09870213 3.98070221 2.54948338M8.08081085 14.0316188C7.83508245 10.7962751 10.9509343 10.3159313 11.19528 7.51620213 11.3777985 5.44322297 9.73750221 3.72095213 7.98718122 3.25070213 8.0152306 2.92532713 7.88762566 2.75729588 7.80090961 2.5473063 11.240317 2.41509797 13.8447615 5.08083755 13.6140454 8.54754588 13.5225886 9.92207713 12.814638 11.6405876 11.7536997 12.3439834 10.6340948 13.0865667 9.27034171 13.3802751 8.08081085 14.0316188"/>
    <path d="M7.72229233,14.2754521 C7.05621825,14.6441709 6.30283554,15.1892334 5.76732937,15.7295459 C5.6312306,15.8659105 5.28555159,16.4741084 5.16189727,16.479848 C5.02342813,16.4871709 4.49167504,15.6681917 4.41661332,15.4950146 C3.51053924,13.4109521 4.98965035,11.6872959 6.09286023,10.3810459 C7.02421825,9.27845213 8.02451455,8.19545213 8.1886627,6.72196255 C8.31863801,5.54732713 7.90184788,4.5577438 7.34994665,4.09481672 C7.50224295,3.94934797 7.68081085,3.58478547 7.81532937,3.57845213 C9.30708245,4.04870213 10.4636257,5.06104588 10.7482676,6.62795213 C11.3706874,10.0473584 6.95784788,10.7184938 7.72229233,14.2754521"/>
    <path d="M7.00268739 4.23771255L7.09592196 4.23771255C7.64327998 4.8047438 7.94767504 5.38285838 7.88742813 6.38233755 7.71044048 9.30378547 4.14777381 10.6290355 3.88407011 13.6561709 3.76199603 15.0578167 4.30619356 15.8700667 4.95468739 16.6401605 4.67478616 17.0674626 4.42846517 17.8917855 4.67577381 18.5518376 2.73088492 17.2626084.78303307 15.6626501.579181218 13.0030459.401897267 10.7068167 1.81167504 9.56345213 3.04634171 8.66708755 4.57503307 7.55538963 6.7883664 6.93135838 6.39784788 4.42415005 6.63211949 4.39466047 6.83300838 4.33132713 7.00268739 4.23771255M2.54658863 2.25834797C2.48792196 2.06003547 2.73167504 1.90427505 2.87330467 1.78315005 3.02283554 1.65472193 3.22076146 1.47416255 3.43389727 1.40273443 3.82382319 1.27131776 4.32298369 1.35770838 4.74174912 1.21259588 5.11508245 1.08347505 5.31439109.669789634 5.72248986.404462551 6.59834171-.163043699 8.08811949-.0241259909 9.13286023.166863592 10.3103417.381425051 11.0868355.798574009 11.8423911 1.40273443 10.2927615.523925051 7.40920591.915463592 6.4235269 2.21045213 5.18105776 2.27675422 3.85305776 2.25716047 2.54658863 2.25834797"/>
    <path d="M7.14629233,2.2385563 C7.092959,2.07666047 7.70214418,1.72179588 8.03241579,1.58107713 C11.6166133,0.0492813008 15.2172059,3.75479588 15.4882183,6.88722297 C15.6924652,9.23985838 14.2708355,10.4445771 13.0182923,11.5829938 C13.5589343,10.4584313 14.1430331,9.20166047 13.950638,7.45088963 C13.6002183,4.26146255 10.7800701,1.87320213 7.14629233,2.2385563"/>
  </g>
</svg>
