<svg width="539" viewBox="0 0 539 389" fill="none" xmlns="http://www.w3.org/2000/svg">
<path d="M78.6557 209C58.1598 221.554 18.5061 221.178 7.62276 244.019C-0.684241 261.453 5.56992 293.639 23.5596 314.056C37.1295 329.458 60.2273 334.93 72.7363 340.539C109.276 356.924 151.335 332.254 190.074 340.539C210.851 344.982 219.834 361.829 240.987 360.968C260.206 360.186 277.248 359.009 286.588 340.539C299.87 314.273 281.348 306.656 283.489 285.088C285.389 265.942 288.012 255.083 295 237.42" stroke="#72777A" stroke-width="8"/>
<path d="M213.745 195.69V5.78418L71.8675 5.78418V195.69H213.745Z" fill="#444444"/>
<path d="M237.873 0H47.7386V75.1911H237.873V0Z" fill="#72777A"/>
<path d="M237.873 83.8667H47.7386V160.022H237.873V83.8667Z" fill="#72777A"/>
<path d="M237.873 168.698H47.7386V243.889H237.873V168.698Z" fill="#72777A"/>
<path d="M237.873 31.8115H47.7386V43.3794H237.873V31.8115Z" fill="#FFFACA"/>
<path d="M237.873 116.643H47.7386V128.211H237.873V116.643Z" fill="#FFFACA"/>
<path d="M237.873 200.51H47.7386V212.078H237.873V200.51Z" fill="#FFFACA"/>
<path d="M200.715 15.4239C203.114 15.4239 205.058 13.4818 205.058 11.086C205.058 8.69021 203.114 6.74805 200.715 6.74805C198.316 6.74805 196.372 8.69021 196.372 11.086C196.372 13.4818 198.316 15.4239 200.715 15.4239Z" fill="#FFFACA"/>
<path d="M216.157 15.4239C218.556 15.4239 220.501 13.4818 220.501 11.086C220.501 8.69021 218.556 6.74805 216.157 6.74805C213.759 6.74805 211.814 8.69021 211.814 11.086C211.814 13.4818 213.759 15.4239 216.157 15.4239Z" fill="#FFFACA"/>
<path d="M231.6 15.4239C233.998 15.4239 235.943 13.4818 235.943 11.086C235.943 8.69021 233.998 6.74805 231.6 6.74805C229.201 6.74805 227.257 8.69021 227.257 11.086C227.257 13.4818 229.201 15.4239 231.6 15.4239Z" fill="#FFFACA"/>
<path d="M200.715 98.3268C203.114 98.3268 205.058 96.3846 205.058 93.9888C205.058 91.593 203.114 89.6509 200.715 89.6509C198.316 89.6509 196.372 91.593 196.372 93.9888C196.372 96.3846 198.316 98.3268 200.715 98.3268Z" fill="#FFFACA"/>
<path d="M216.157 98.3268C218.556 98.3268 220.501 96.3846 220.501 93.9888C220.501 91.593 218.556 89.6509 216.157 89.6509C213.759 89.6509 211.814 91.593 211.814 93.9888C211.814 96.3846 213.759 98.3268 216.157 98.3268Z" fill="#FFFACA"/>
<path d="M231.6 98.3268C233.998 98.3268 235.943 96.3846 235.943 93.9888C235.943 91.593 233.998 89.6509 231.6 89.6509C229.201 89.6509 227.257 91.593 227.257 93.9888C227.257 96.3846 229.201 98.3268 231.6 98.3268Z" fill="#FFFACA"/>
<path d="M200.715 180.266C203.114 180.266 205.058 178.324 205.058 175.928C205.058 173.532 203.114 171.59 200.715 171.59C198.316 171.59 196.372 173.532 196.372 175.928C196.372 178.324 198.316 180.266 200.715 180.266Z" fill="#FFFACA"/>
<path d="M216.157 180.266C218.556 180.266 220.501 178.324 220.501 175.928C220.501 173.532 218.556 171.59 216.157 171.59C213.759 171.59 211.814 173.532 211.814 175.928C211.814 178.324 213.759 180.266 216.157 180.266Z" fill="#FFFACA"/>
<path d="M231.6 180.266C233.998 180.266 235.943 178.324 235.943 175.928C235.943 173.532 233.998 171.59 231.6 171.59C229.201 171.59 227.257 173.532 227.257 175.928C227.257 178.324 229.201 180.266 231.6 180.266Z" fill="#FFFACA"/>
<g opacity="0.5">
<path opacity="0.5" d="M525.372 114.715H423.298C415.771 114.715 409.67 120.809 409.67 128.326V230.278C409.67 237.795 415.771 243.889 423.298 243.889H525.372C532.899 243.889 539 237.795 539 230.278V128.326C539 120.809 532.899 114.715 525.372 114.715Z" fill="#D0D2D5"/>
<path opacity="0.1" d="M455.997 151.838H492.673C492.673 151.838 523.558 178.83 492.673 206.785H455.997C455.997 206.785 425.112 181.722 455.997 151.838Z" fill="black"/>
<path opacity="0.5" d="M464.683 167.252H459.858V181.712H464.683V167.252Z" fill="#3F3D56"/>
<path opacity="0.5" d="M488.812 165.324H483.986V182.676H488.812V165.324Z" fill="#3F3D56"/>
<path opacity="0.5" d="M474.335 190.388C475.871 190.388 477.344 190.998 478.43 192.082C479.516 193.167 480.126 194.638 480.126 196.172V200.992H468.544V196.172C468.544 194.638 469.154 193.167 470.24 192.082C471.326 190.998 472.799 190.388 474.335 190.388Z" fill="#3F3D56"/>
</g>
<path d="M404.873 161.284L333.931 186.445L338.453 199.163L409.394 174.002L404.873 161.284Z" fill="#C6CACC"/>
<path d="M357.663 212.818L422.238 189.915C423.926 189.316 425.784 189.411 427.402 190.181C429.02 190.95 430.265 192.329 430.865 194.016C431.465 195.702 431.369 197.557 430.599 199.173C429.829 200.789 428.448 202.034 426.759 202.633L362.184 225.536L357.663 212.818Z" fill="#C6CACC"/>
<path d="M296.142 173.257L311.876 167.677C325.867 162.714 341.258 163.507 354.664 169.879C368.069 176.251 378.392 187.681 383.36 201.655L388.947 217.371C390.89 222.835 390.58 228.846 388.085 234.082C385.59 239.318 381.115 243.349 375.644 245.29L327.786 262.264C322.315 264.204 316.297 263.894 311.055 261.402C305.813 258.911 301.776 254.441 299.833 248.977L282.839 201.176C280.896 195.712 281.206 189.701 283.701 184.465C286.196 179.229 290.671 175.198 296.142 173.257Z" fill="#444444"/>
<path fill-rule="evenodd" clip-rule="evenodd" d="M244.56 190.609C248.696 193.07 252.759 194.258 254.667 193.773C259.45 192.556 259.89 175.287 256.189 168.479C252.488 161.671 233.461 158.704 232.502 172.193C232.169 176.874 234.161 181.052 237.104 184.461L231.827 208.734H247.156L244.56 190.609Z" fill="#B28B67"/>
<path fill-rule="evenodd" clip-rule="evenodd" d="M235.926 187.498C234.002 179.051 228.521 173.293 229.358 169.518C230.195 165.743 233.82 164.822 233.82 164.822C233.82 164.822 235.695 157.338 245.914 158.455C256.132 159.573 262.369 163.761 259.676 172.976C257.2 172.976 254.211 172.092 250.078 173.606C248.111 174.327 247.264 178.075 247.264 178.075H245.397C245.397 178.075 242.678 173.627 240.035 174.806C237.392 175.985 238.833 180.534 238.833 180.534L237.913 187.498H235.926Z" fill="#191847"/>
<path fill-rule="evenodd" clip-rule="evenodd" d="M222.482 237.653L245.46 318.219L262.225 377.601H274.452L256.637 237.653H222.482Z" fill="#191847"/>
<path fill-rule="evenodd" clip-rule="evenodd" d="M216.337 237.653C215.806 279.178 213.993 301.827 213.435 305.599C212.877 309.372 204.44 333.373 188.123 377.601H200.79C221.563 335.172 233.159 311.171 235.578 305.599C237.997 300.028 245.462 277.379 256.706 237.653H216.337Z" fill="#2F3676"/>
<path fill-rule="evenodd" clip-rule="evenodd" d="M186.99 388.999L187.624 375.701L200.934 375.701C210.4 382.35 225.651 386.466 225.651 386.466V388.999H201.567L193.328 387.733V388.999H186.99Z" fill="#191847"/>
<path fill-rule="evenodd" clip-rule="evenodd" d="M260.509 388.999L261.143 375.701L274.452 375.701C283.919 382.35 299.17 386.466 299.17 386.466V388.999H275.086L266.847 387.733V388.999H260.509Z" fill="#191847"/>
<path fill-rule="evenodd" clip-rule="evenodd" d="M281.193 209.295L259.209 221.349L267.327 230.072L283.302 215.43C291.717 213.108 295.565 211.41 294.847 210.334C294.241 209.428 293.264 209.459 292.364 209.488C291.663 209.511 291.009 209.532 290.613 209.107C289.71 208.136 291.434 204.743 293.207 201.592C294.98 198.441 293.084 198.716 292 199.169C288.451 201.573 284.849 204.949 281.193 209.295ZM303.298 226.208L293.641 231.519L294.191 241.22C294.191 241.22 300.445 236.701 305.826 235.199C312.687 233.284 315.463 231.822 318.815 227.545C320.609 225.257 322.132 220.657 320.424 219.159C319.769 218.585 317.329 219.942 314.839 221.328C312.941 222.383 311.015 223.455 309.828 223.7C308.23 224.029 308.417 221.956 308.566 220.299C308.674 219.11 308.762 218.136 308.157 218.417C305.33 218.466 303.298 226.208 303.298 226.208Z" fill="#997659"/>
<path fill-rule="evenodd" clip-rule="evenodd" d="M248.502 218.664C256.203 218.582 266.471 216.954 277.428 209.992L281.731 219.598C274.173 227.106 263.546 233.275 254.255 233.014C246.932 232.808 243.19 223.942 248.502 218.664Z" fill="#C6CACC"/>
<path fill-rule="evenodd" clip-rule="evenodd" d="M227.734 284.475C220.414 283.52 213.687 282.642 209.701 283.428C205.228 268.887 208.942 259.731 212.37 251.28C214.437 246.186 216.399 241.347 216.404 235.74C216.416 219.41 229.514 194.274 231.441 194.274H231.994H247.267H249.015C249.801 204.379 253.154 215.321 256.529 226.332C257.317 228.904 258.107 231.479 258.865 234.049C271.637 236.951 299.997 226.848 299.997 226.848C299.997 226.848 307.157 241.676 306.617 247.99C290.109 256.622 275.961 260.471 264.305 260.725C264.675 267.649 263.833 274.237 261.005 280.257C257.216 288.323 241.435 286.264 227.734 284.475Z" fill="#E1E3E4"/>
</svg>
