<svg width="24" height="24" viewBox="0 0 24 24" fill="none" xmlns="http://www.w3.org/2000/svg">
<path fill-rule="evenodd" clip-rule="evenodd" d="M9.42857 17.7586C7.40147 16.7673 6 14.6403 6 12.1765C6 8.7653 8.68629 6 12 6C15.3137 6 18 8.7653 18 12.1765C18 14.6404 16.5985 16.7673 14.5714 17.7586V19.6765C14.5714 20.4074 13.9958 21 13.2857 21H10.7143C10.0042 21 9.42857 20.4074 9.42857 19.6765V17.7586ZM6.85714 12.1765C6.85714 9.25261 9.15968 6.88235 12 6.88235C14.8403 6.88235 17.1429 9.25261 17.1429 12.1765C17.1429 14.364 15.8537 16.2436 14.0121 17.0503C13.9888 17.058 13.9664 17.0677 13.945 17.0791C13.9091 17.0942 13.873 17.109 13.8367 17.1233C13.2674 17.3474 12.6487 17.4706 12 17.4706C11.3513 17.4706 10.7326 17.3474 10.1633 17.1233C8.22868 16.3615 6.85714 14.4328 6.85714 12.1765ZM13.7143 18.0972C13.1711 18.2636 12.5957 18.3529 12 18.3529C11.4043 18.3529 10.8289 18.2636 10.2857 18.0972V19.6765C10.2857 19.9201 10.4776 20.1176 10.7143 20.1176H13.2857C13.5224 20.1176 13.7143 19.9201 13.7143 19.6765V18.0972Z" fill="currentColor" stroke="currentColor" stroke-width="0.5"/>
<path d="M3.5 12.5H2.5M21.5 12.5H20.5M18 5.70711L18.7071 5M5.70701 5.70711L4.99991 5M12 2.5V3.5" stroke="currentColor" stroke-width="1.5" stroke-linecap="round"/>
</svg>
