<svg width="24" height="24" viewBox="0 0 24 24" fill="none" xmlns="http://www.w3.org/2000/svg">
<path fill-rule="evenodd" clip-rule="evenodd" d="M15.0049 14.0485L17.2371 15.3258C18.1581 15.8519 18.7562 16.793 18.8505 17.8372C20.1909 16.2657 21 14.2274 21 12C21 7.02944 16.9706 3 12 3C7.02944 3 3 7.02944 3 12C3 14.2274 3.80912 16.2657 5.14947 17.8372C5.2438 16.793 5.84188 15.8519 6.76214 15.3263L8.99366 14.0464C8.59608 13.4634 8.36364 12.7589 8.36364 12V10.1818C8.36364 8.17351 9.99169 6.54545 12 6.54545C14.0083 6.54545 15.6364 8.17351 15.6364 10.1818V12C15.6364 12.7598 15.4033 13.4651 15.0049 14.0485ZM14.3139 14.8053C13.6852 15.3245 12.879 15.6364 12 15.6364C11.1199 15.6364 10.3128 15.3237 9.68375 14.8034L7.25891 16.1942C6.56477 16.5907 6.13635 17.3288 6.13636 18.1282V18.8055H6.11032C7.68879 20.1727 9.74778 21 12 21C14.2522 21 16.3112 20.1727 17.8897 18.8055H17.8636V18.1282C17.8636 17.3288 17.4352 16.5907 16.7408 16.194L14.3139 14.8053ZM12 22C6.47715 22 2 17.5228 2 12C2 6.47715 6.47715 2 12 2C17.5228 2 22 6.47715 22 12C22 17.5228 17.5228 22 12 22ZM12 14.6364C13.456 14.6364 14.6364 13.456 14.6364 12V10.1818C14.6364 8.72579 13.456 7.54545 12 7.54545C10.544 7.54545 9.36364 8.72579 9.36364 10.1818V12C9.36364 13.456 10.544 14.6364 12 14.6364Z" fill="currentColor" stroke="currentColor" stroke-width="0.5"/>
</svg>
