<svg width="24" height="24" viewBox="0 0 24 24" fill="none" xmlns="http://www.w3.org/2000/svg">
<path d="M3.25 12C3.25 12.4142 3.58579 12.75 4 12.75C4.41421 12.75 4.75 12.4142 4.75 12H3.25ZM8.41719 18.8612C8.07298 18.6308 7.60715 18.723 7.37674 19.0673C7.14633 19.4115 7.23859 19.8773 7.58281 20.1077L8.41719 18.8612ZM2.07617 9.01986C1.81099 8.70165 1.33807 8.65866 1.01986 8.92383C0.701654 9.18901 0.658661 9.66193 0.923834 9.98014L2.07617 9.01986ZM4 12.5L3.42383 12.9801C3.55873 13.142 3.75551 13.2397 3.96601 13.2492C4.17652 13.2588 4.38133 13.1793 4.53033 13.0303L4 12.5ZM7.53033 10.0303C7.82322 9.73744 7.82322 9.26256 7.53033 8.96967C7.23744 8.67678 6.76256 8.67678 6.46967 8.96967L7.53033 10.0303ZM21.25 12C21.25 16.5563 17.5563 20.25 13 20.25V21.75C18.3848 21.75 22.75 17.3848 22.75 12H21.25ZM4.75 12C4.75 7.44365 8.44365 3.75 13 3.75V2.25C7.61522 2.25 3.25 6.61522 3.25 12H4.75ZM13 3.75C17.5563 3.75 21.25 7.44365 21.25 12H22.75C22.75 6.61522 18.3848 2.25 13 2.25V3.75ZM13 20.25C11.303 20.25 9.7277 19.7384 8.41719 18.8612L7.58281 20.1077C9.1325 21.145 10.9967 21.75 13 21.75V20.25ZM0.923834 9.98014L3.42383 12.9801L4.57617 12.0199L2.07617 9.01986L0.923834 9.98014ZM4.53033 13.0303L7.53033 10.0303L6.46967 8.96967L3.46967 11.9697L4.53033 13.0303Z" fill="currentColor"/>
</svg>
