<svg width="24" height="24" viewBox="0 0 24 24" fill="none" xmlns="http://www.w3.org/2000/svg">
<path d="M17.4643 5.5H20.5M17.4643 5.5C17.4764 5.5 17.4884 5.5 17.5002 5.5C18.0525 5.5 18.5 5.94772 18.5 6.5V19C18.5 20.3117 17.3413 21.5 16.0001 21.5H8.00005C6.65879 21.5 5.50005 20.3117 5.50005 19V6.5C5.50005 5.94772 5.94755 5.5 6.49983 5.5C6.51169 5.5 6.52365 5.5 6.53571 5.5M17.4643 5.5L15.5001 2.5C15.5001 2.5 13.3669 2.5 12.0001 2.5C10.5216 2.5 8.50005 2.5 8.50005 2.5L6.53571 5.5M17.4643 5.5H12H6.53571M6.53571 5.5H3.5" stroke="currentColor" stroke-width="1.5" stroke-linecap="round" stroke-linejoin="round"/>
</svg>
