<svg width="24" height="24" viewBox="0 0 24 24" fill="none" xmlns="http://www.w3.org/2000/svg">
<path fill-rule="evenodd" clip-rule="evenodd" d="M2 12C2 17.5228 6.47715 22 12 22C17.5228 22 22 17.5228 22 12C22 6.47715 17.5228 2 12 2C6.47715 2 2 6.47715 2 12ZM16.7682 9.64018C17.1218 9.21591 17.0645 8.58534 16.6402 8.23178C16.2159 7.87821 15.5853 7.93554 15.2318 8.35982L10.9328 13.5186L8.70711 11.2929C8.31658 10.9024 7.68342 10.9024 7.29289 11.2929C6.90237 11.6834 6.90237 12.3166 7.29289 12.7071L10.2929 15.7071C10.4916 15.9058 10.7646 16.0117 11.0453 15.999C11.326 15.9862 11.5884 15.856 11.7682 15.6402L16.7682 9.64018Z" fill="currentColor"/>
</svg>
