<svg width="24" height="24" viewBox="0 0 24 24" fill="none" xmlns="http://www.w3.org/2000/svg">
<path d="M21.1894 13.6515C21.1894 13.2373 20.8536 12.9015 20.4394 12.9015C20.0252 12.9015 19.6894 13.2373 19.6894 13.6515H21.1894ZM11.4697 4.31061C11.8839 4.31061 12.2197 3.97482 12.2197 3.56061C12.2197 3.14639 11.8839 2.81061 11.4697 2.81061V4.31061ZM7.5 14.5L6.96967 13.9697C6.82902 14.1103 6.75 14.3011 6.75 14.5H7.5ZM7.5 17.5H6.75C6.75 17.9142 7.08579 18.25 7.5 18.25V17.5ZM10.5 17.5V18.25C10.6989 18.25 10.8897 18.171 11.0303 18.0303L10.5 17.5ZM17 5L16.4697 4.46967L17 5ZM1.75 5.24243V19.8182H3.25V5.24243H1.75ZM4.18182 22.25H18.7576V20.75H4.18182V22.25ZM21.1894 19.8182V13.6515H19.6894V19.8182H21.1894ZM4.18182 4.31061H11.4697V2.81061H4.18182V4.31061ZM18.7576 22.25C19.4338 22.25 20.0787 22.0804 20.5493 21.6099C21.0198 21.1393 21.1894 20.4944 21.1894 19.8182H19.6894C19.6894 20.2632 19.5787 20.4592 19.4886 20.5492C19.3986 20.6393 19.2026 20.75 18.7576 20.75V22.25ZM1.75 19.8182C1.75 20.4944 1.91956 21.1393 2.39012 21.6099C2.86069 22.0804 3.5056 22.25 4.18182 22.25V20.75C3.73682 20.75 3.54083 20.6393 3.45078 20.5492C3.36074 20.4592 3.25 20.2632 3.25 19.8182H1.75ZM3.25 5.24243C3.25 4.79743 3.36074 4.60144 3.45078 4.51139C3.54083 4.42135 3.73682 4.31061 4.18182 4.31061V2.81061C3.5056 2.81061 2.86069 2.98017 2.39012 3.45073C1.91956 3.9213 1.75 4.56621 1.75 5.24243H3.25ZM6.75 14.5V17.5H8.25V14.5H6.75ZM7.5 18.25H10.5V16.75H7.5V18.25ZM11.0303 18.0303L20.5303 8.53033L19.4697 7.46967L9.96967 16.9697L11.0303 18.0303ZM16.4697 4.46967L6.96967 13.9697L8.03033 15.0303L17.5303 5.53033L16.4697 4.46967ZM20.5303 4.46967C19.409 3.34835 17.591 3.34835 16.4697 4.46967L17.5303 5.53033C18.0659 4.9948 18.9341 4.9948 19.4697 5.53033L20.5303 4.46967ZM20.5303 8.53033C21.6516 7.40901 21.6517 5.59099 20.5303 4.46967L19.4697 5.53033C20.0052 6.06587 20.0052 6.93414 19.4697 7.46967L20.5303 8.53033Z" fill="currentColor"/>
</svg>
