<svg width="24" height="24" viewBox="0 0 24 24" fill="none" xmlns="http://www.w3.org/2000/svg">
<path d="M6.75 6.5C6.75 6.91421 7.08579 7.25 7.5 7.25C7.91421 7.25 8.25 6.91421 8.25 6.5H6.75ZM8.25 3.5C8.25 3.08579 7.91421 2.75 7.5 2.75C7.08579 2.75 6.75 3.08579 6.75 3.5H8.25ZM17.25 3.5C17.25 3.08579 16.9142 2.75 16.5 2.75C16.0858 2.75 15.75 3.08579 15.75 3.5H17.25ZM15.75 6.5C15.75 6.91421 16.0858 7.25 16.5 7.25C16.9142 7.25 17.25 6.91421 17.25 6.5H15.75ZM4.5 21.25H19.5V19.75H4.5V21.25ZM19.5 5.75H4.5V7.25H19.5V5.75ZM2.75 7.5V10.5H4.25V7.5H2.75ZM2.75 10.5V19.5H4.25V10.5H2.75ZM21.25 19.5V10.5H19.75V19.5H21.25ZM21.25 10.5V7.5H19.75V10.5H21.25ZM3.5 11.25H20.5V9.75H3.5V11.25ZM19.5 7.25C19.6381 7.25 19.75 7.36193 19.75 7.5H21.25C21.25 6.5335 20.4665 5.75 19.5 5.75V7.25ZM19.5 21.25C20.4665 21.25 21.25 20.4665 21.25 19.5H19.75C19.75 19.6381 19.6381 19.75 19.5 19.75V21.25ZM4.5 19.75C4.36193 19.75 4.25 19.6381 4.25 19.5H2.75C2.75 20.4665 3.5335 21.25 4.5 21.25V19.75ZM4.5 5.75C3.5335 5.75 2.75 6.5335 2.75 7.5H4.25C4.25 7.36193 4.36193 7.25 4.5 7.25V5.75ZM8.25 6.5V3.5H6.75V6.5H8.25ZM15.75 3.5V6.5H17.25V3.5H15.75Z" fill="currentColor"/>
</svg>
