<svg width="24" height="24" viewBox="0 0 24 24" fill="none" xmlns="http://www.w3.org/2000/svg">
<path fill-rule="evenodd" clip-rule="evenodd" d="M12 20.5C16.6944 20.5 20.5 16.6944 20.5 12C20.5 7.30558 16.6944 3.5 12 3.5C7.30558 3.5 3.5 7.30558 3.5 12C3.5 16.6944 7.30558 20.5 12 20.5ZM12 22C17.5228 22 22 17.5228 22 12C22 6.47715 17.5228 2 12 2C6.47715 2 2 6.47715 2 12C2 17.5228 6.47715 22 12 22ZM8.2561 12C8.2561 11.5858 8.59189 11.25 9.0061 11.25H11.2561V9C11.2561 8.58579 11.5919 8.25 12.0061 8.25C12.4203 8.25 12.7561 8.58579 12.7561 9V11.25H15.0061C15.4203 11.25 15.7561 11.5858 15.7561 12C15.7561 12.4142 15.4203 12.75 15.0061 12.75H12.7561V15C12.7561 15.4142 12.4203 15.75 12.0061 15.75C11.5919 15.75 11.2561 15.4142 11.2561 15V12.75H9.0061C8.59189 12.75 8.2561 12.4142 8.2561 12Z" fill="currentColor"/>
</svg>
