<svg width="24" height="24" viewBox="0 0 24 24" fill="none" xmlns="http://www.w3.org/2000/svg">
<path fill-rule="evenodd" clip-rule="evenodd" d="M20.5 12C20.5 16.6944 16.6944 20.5 12 20.5C7.30558 20.5 3.5 16.6944 3.5 12C3.5 7.30558 7.30558 3.5 12 3.5C16.6944 3.5 20.5 7.30558 20.5 12ZM22 12C22 17.5228 17.5228 22 12 22C6.47715 22 2 17.5228 2 12C2 6.47715 6.47715 2 12 2C17.5228 2 22 6.47715 22 12ZM9.0061 11.25C8.59189 11.25 8.2561 11.5858 8.2561 12C8.2561 12.4142 8.59189 12.75 9.0061 12.75H15.0061C15.4203 12.75 15.7561 12.4142 15.7561 12C15.7561 11.5858 15.4203 11.25 15.0061 11.25H9.0061Z" fill="currentColor"/>
</svg>
