<svg width="24" height="24" viewBox="0 0 24 24" fill="none" xmlns="http://www.w3.org/2000/svg">
<path d="M9.5 15.7364C9.08579 15.7364 8.75 16.0722 8.75 16.4864C8.75 16.9006 9.08579 17.2364 9.5 17.2364V15.7364ZM14.5 17.2364C14.9142 17.2364 15.25 16.9006 15.25 16.4864C15.25 16.0722 14.9142 15.7364 14.5 15.7364V17.2364ZM9.5 17.759C9.08579 17.759 8.75 18.0947 8.75 18.509C8.75 18.9232 9.08579 19.259 9.5 19.259V17.759ZM14.5 19.259C14.9142 19.259 15.25 18.9232 15.25 18.509C15.25 18.0947 14.9142 17.759 14.5 17.759V19.259ZM6.44449 18.25C6.8587 18.25 7.19449 17.9142 7.19449 17.5C7.19449 17.0858 6.8587 16.75 6.44449 16.75V18.25ZM5.75689 6.44445C5.75689 6.85866 6.09268 7.19445 6.50689 7.19445C6.9211 7.19445 7.25689 6.85866 7.25689 6.44445H5.75689ZM17.5 3.5H16.75V3.50001L17.5 3.5ZM16.75 6.44446C16.75 6.85867 17.0858 7.19445 17.5001 7.19445C17.9143 7.19444 18.25 6.85865 18.25 6.44444L16.75 6.44446ZM5.33338 12.7719C4.91916 12.7719 4.58338 13.1077 4.58338 13.5219C4.58338 13.9362 4.91916 14.2719 5.33338 14.2719V12.7719ZM18.6667 14.2719C19.0809 14.2719 19.4167 13.9362 19.4167 13.5219C19.4167 13.1077 19.0809 12.7719 18.6667 12.7719V14.2719ZM7.25 13.5219C7.25 13.1077 6.91421 12.7719 6.5 12.7719C6.08579 12.7719 5.75 13.1077 5.75 13.5219H7.25ZM18.25 13.5219C18.25 13.1077 17.9142 12.7719 17.5 12.7719C17.0858 12.7719 16.75 13.1077 16.75 13.5219H18.25ZM9.5 17.2364H14.5V15.7364H9.5V17.2364ZM9.5 19.259H14.5V17.759H9.5V19.259ZM1.75 7.5V16.5H3.25V7.5H1.75ZM3.5 18.25H6.44449V16.75H3.5V18.25ZM3.5 7.25H20.5V5.75H3.5V7.25ZM20.75 7.5V16.5H22.25V7.5H20.75ZM20.5 16.75H17.5V18.25H20.5V16.75ZM20.75 16.5C20.75 16.6472 20.7069 16.6927 20.6998 16.6998C20.6927 16.7069 20.6473 16.75 20.5 16.75V18.25C20.9664 18.25 21.4209 18.1 21.7605 17.7605C22.1 17.421 22.25 16.9664 22.25 16.5H20.75ZM20.5 7.25C20.6473 7.25 20.6927 7.29315 20.6998 7.30023C20.7069 7.3073 20.75 7.35276 20.75 7.5H22.25C22.25 7.03359 22.1 6.57905 21.7605 6.23954C21.4209 5.90003 20.9664 5.75 20.5 5.75V7.25ZM1.75 16.5C1.75 16.9664 1.90003 17.4209 2.23955 17.7604C2.57907 18.1 3.03361 18.25 3.5 18.25V16.75C3.35274 16.75 3.30728 16.7069 3.30021 16.6998C3.29314 16.6927 3.25 16.6473 3.25 16.5H1.75ZM3.25 7.5C3.25 7.35274 3.29314 7.30728 3.30021 7.30021C3.30728 7.29315 3.35274 7.25 3.5 7.25V5.75C3.03361 5.75 2.57907 5.90003 2.23955 6.23955C1.90003 6.57907 1.75 7.03361 1.75 7.5H3.25ZM7.25689 6.44445V3.5H5.75689V6.44445H7.25689ZM7.5 3.25H16.5V1.75H7.5V3.25ZM16.75 3.50001L16.75 6.44446L18.25 6.44444L18.25 3.49999L16.75 3.50001ZM16.5 3.25C16.6473 3.25 16.6927 3.29314 16.6998 3.30021C16.7069 3.30728 16.75 3.35274 16.75 3.5H18.25C18.25 3.03361 18.1 2.57907 17.7604 2.23955C17.4209 1.90003 16.9664 1.75 16.5 1.75V3.25ZM7.25689 3.5C7.25689 3.34896 7.30066 3.30326 7.3063 3.29756C7.311 3.29281 7.35312 3.25 7.5 3.25V1.75C7.03323 1.75 6.5788 1.90037 6.24035 2.24221C5.90285 2.58309 5.75689 3.03739 5.75689 3.5H7.25689ZM5.33338 14.2719H18.6667V12.7719H5.33338V14.2719ZM5.75 13.5219V20.5H7.25V13.5219H5.75ZM7.5 22.25H16.5V20.75H7.5V22.25ZM16.5 22.25C16.9664 22.25 17.4209 22.1 17.7604 21.7604C18.1 21.4209 18.25 20.9664 18.25 20.5H16.75C16.75 20.6473 16.7069 20.6927 16.6998 20.6998C16.6927 20.7069 16.6473 20.75 16.5 20.75V22.25ZM5.75 20.5C5.75 20.9664 5.90003 21.4209 6.23955 21.7604C6.57907 22.1 7.03361 22.25 7.5 22.25V20.75C7.35274 20.75 7.30728 20.7069 7.30021 20.6998C7.29314 20.6927 7.25 20.6473 7.25 20.5H5.75ZM18.25 20.5V17.5H16.75V20.5H18.25ZM18.25 17.5V13.5219H16.75V17.5H18.25Z" fill="currentColor"/>
</svg>
