<svg width="24" height="24" viewBox="0 0 24 24" fill="none" xmlns="http://www.w3.org/2000/svg">
<path d="M20.5 21.5H3.5C2.94772 21.5 2.5 21.0523 2.5 20.5V3.5C2.5 2.94772 2.94772 2.5 3.5 2.5H17.0858C17.351 2.5 17.6054 2.60536 17.7929 2.79289L21.2071 6.20711C21.3946 6.39464 21.5 6.649 21.5 6.91421V20.5C21.5 21.0523 21.0523 21.5 20.5 21.5Z" stroke="currentColor" stroke-width="1.5" stroke-linecap="round"/>
<path d="M6.5 6.5V2.5H11.5V6.5H6.5Z" stroke="currentColor" stroke-width="1.5" stroke-linejoin="round"/>
<path d="M6.5 13.5V21.5H17.5V13.5C17.5 12.9477 17.0523 12.5 16.5 12.5H7.5C6.94772 12.5 6.5 12.9477 6.5 13.5Z" stroke="currentColor" stroke-width="1.5" stroke-linejoin="round"/>
</svg>
