<svg width="24" height="24" viewBox="0 0 24 24" fill="none" xmlns="http://www.w3.org/2000/svg">
<path fill-rule="evenodd" clip-rule="evenodd" d="M20.5 12C20.5 16.6944 16.6944 20.5 12 20.5C9.92432 20.5 8.02241 19.756 6.54641 18.5201L18.5201 6.54641C19.756 8.02241 20.5 9.92432 20.5 12ZM5.48523 17.46L17.46 5.48523C15.9831 4.24615 14.0787 3.5 12 3.5C7.30558 3.5 3.5 7.30558 3.5 12C3.5 14.0787 4.24615 15.9831 5.48523 17.46ZM22 12C22 17.5228 17.5228 22 12 22C6.47715 22 2 17.5228 2 12C2 6.47715 6.47715 2 12 2C17.5228 2 22 6.47715 22 12Z" fill="currentColor"/>
</svg>
