<svg width="24" height="24" viewBox="0 0 24 24" fill="none" xmlns="http://www.w3.org/2000/svg">
<path fill-rule="evenodd" clip-rule="evenodd" d="M4.22222 2H19.7778C21.0111 2 22 3 22 4.22222V19.7778C22 21 21.0111 22 19.7778 22H4.22222C2.98889 22 2 21 2 19.7778V4.22222C2 3 2.98889 2 4.22222 2ZM17.8 8.6C18.1314 8.15817 18.0418 7.53137 17.6 7.2C17.1582 6.86863 16.5314 6.95817 16.2 7.4L10.8 14.6L7.6 12.2C7.15817 11.8686 6.53137 11.9582 6.2 12.4C5.86863 12.8418 5.95817 13.4686 6.4 13.8L10.4 16.8C10.8418 17.1314 11.4686 17.0418 11.8 16.6L17.8 8.6Z" fill="currentColor"/>
</svg>
