<svg width="24" height="24" viewBox="0 0 24 24" fill="none" xmlns="http://www.w3.org/2000/svg">
<path fill-rule="evenodd" clip-rule="evenodd" d="M19.7421 18.3297C21.1533 16.6057 22 14.4017 22 12C22 6.47715 17.5228 2 12 2C9.59827 2 7.3943 2.84669 5.67028 4.25786C5.68278 4.26917 5.69506 4.28084 5.70711 4.29289L9.28392 7.86971C12.0524 7.09972 15.1015 7.53247 17.5547 9.16795C18.0142 9.4743 18.1384 10.0952 17.8321 10.5547C17.5257 11.0142 16.9048 11.1384 16.4453 10.832C14.8211 9.74927 12.8631 9.32661 10.9783 9.56406L12.6992 11.2849C13.6189 11.3769 14.537 11.6504 15.4472 12.1055C15.9412 12.3525 16.1414 12.9532 15.8944 13.4472C15.7768 13.6824 15.579 13.851 15.3507 13.9365L19.7071 18.2929C19.7192 18.3049 19.7308 18.3172 19.7421 18.3297ZM18.3297 19.7421C16.6057 21.1533 14.4017 22 12 22C6.47715 22 2 17.5228 2 12C2 9.59827 2.84669 7.3943 4.25786 5.67028C4.26917 5.68278 4.28084 5.69506 4.29289 5.70711L7.26382 8.67804C6.98471 8.82718 6.7115 8.99048 6.4453 9.16795C5.98577 9.4743 5.8616 10.0952 6.16795 10.5547C6.4743 11.0142 7.09517 11.1384 7.5547 10.8321C7.93939 10.5756 8.34281 10.3562 8.75955 10.1738L10.0956 11.5098C9.57956 11.6509 9.06492 11.8495 8.55279 12.1055C8.05881 12.3525 7.85858 12.9532 8.10557 13.4472C8.35255 13.9412 8.95323 14.1414 9.44721 13.8944C10.2518 13.4921 11.0454 13.2782 11.8384 13.2526L18.2929 19.7071C18.3049 19.7192 18.3172 19.7308 18.3297 19.7421ZM12 17C12.5523 17 13 16.5523 13 16C13 15.4477 12.5523 15 12 15C11.4477 15 11 15.4477 11 16C11 16.5523 11.4477 17 12 17Z" fill="currentColor"/>
</svg>
