<svg width="24" height="24" viewBox="0 0 24 24" fill="none" xmlns="http://www.w3.org/2000/svg">
<path d="M20.25 17.5C20.25 17.0858 19.9142 16.75 19.5 16.75C19.0858 16.75 18.75 17.0858 18.75 17.5H20.25ZM18.75 6.5C18.75 6.91421 19.0858 7.25 19.5 7.25C19.9142 7.25 20.25 6.91421 20.25 6.5H18.75ZM16.0303 7.46967C15.7374 7.17678 15.2626 7.17678 14.9697 7.46967C14.6768 7.76256 14.6768 8.23744 14.9697 8.53033L16.0303 7.46967ZM19.5 12L20.0303 12.5303C20.3232 12.2374 20.3232 11.7626 20.0303 11.4697L19.5 12ZM9.5 11.25C9.08579 11.25 8.75 11.5858 8.75 12C8.75 12.4142 9.08579 12.75 9.5 12.75V11.25ZM14.9697 15.4697C14.6768 15.7626 14.6768 16.2374 14.9697 16.5303C15.2626 16.8232 15.7374 16.8232 16.0303 16.5303L14.9697 15.4697ZM3.75 3.5V20.5H5.25V3.5H3.75ZM5.5 22.25H18.5V20.75H5.5V22.25ZM20.25 20.5V17.5H18.75V20.5H20.25ZM5.5 3.25H18.5V1.75H5.5V3.25ZM18.75 3.5V6.5H20.25V3.5H18.75ZM18.5 3.25C18.6381 3.25 18.75 3.36193 18.75 3.5H20.25C20.25 2.5335 19.4665 1.75 18.5 1.75V3.25ZM18.5 22.25C19.4665 22.25 20.25 21.4665 20.25 20.5H18.75C18.75 20.6381 18.6381 20.75 18.5 20.75V22.25ZM3.75 20.5C3.75 21.4665 4.5335 22.25 5.5 22.25V20.75C5.36193 20.75 5.25 20.6381 5.25 20.5H3.75ZM5.25 3.5C5.25 3.36193 5.36193 3.25 5.5 3.25V1.75C4.5335 1.75 3.75 2.5335 3.75 3.5H5.25ZM14.9697 8.53033L18.9697 12.5303L20.0303 11.4697L16.0303 7.46967L14.9697 8.53033ZM19.5 11.25H9.5V12.75H19.5V11.25ZM16.0303 16.5303L20.0303 12.5303L18.9697 11.4697L14.9697 15.4697L16.0303 16.5303Z" fill="currentColor"/>
</svg>
