<svg width="24" height="24" viewBox="0 0 24 24" fill="none" xmlns="http://www.w3.org/2000/svg">
<path fill-rule="evenodd" clip-rule="evenodd" d="M10.2432 4.01702L2.21838 18.0047C1.45344 19.3381 2.41599 21 3.95316 21H20.0391C21.5779 21 22.5403 19.3347 21.7719 18.0014L13.7108 4.01364C12.9405 2.67698 11.0109 2.67886 10.2432 4.01702ZM12 8C12.5523 8 13 8.44771 13 9V14C13 14.5523 12.5523 15 12 15C11.4477 15 11 14.5523 11 14V9C11 8.44771 11.4477 8 12 8ZM13 17C13 17.5523 12.5523 18 12 18C11.4477 18 11 17.5523 11 17C11 16.4477 11.4477 16 12 16C12.5523 16 13 16.4477 13 17Z" fill="currentColor"/>
</svg>
