<svg width="24" height="24" viewBox="0 0 24 24" fill="none" xmlns="http://www.w3.org/2000/svg">
<path fill-rule="evenodd" clip-rule="evenodd" d="M12.3 13.4H9.8V17H8V7H12.3C13.83 7 14.45 7.29 15.1 7.88C15.75 8.5 16 9.26 16 10.23C16 11.25 15.74 12.03 15.1 12.58C14.46 13.12 13.8 13.4 12.3 13.4ZM9.8 8.4V12H12.22C12.9 12 13.28 11.81 13.6 11.5C13.92 11.19 14.1 10.8 14.1 10.24C14.1 9.72 13.93 9.35 13.6 9C13.27 8.65 12.76 8.4 12.1 8.4H9.8Z" fill="#E43200"/>
<path d="M21.5 5C21.5 3.61929 20.3807 2.5 19 2.5H5C3.62549 2.5 2.5 3.61223 2.5 5V19C2.5 20.3807 3.61929 21.5 5 21.5H19C20.3807 21.5 21.5 20.3807 21.5 19V5Z" stroke="#E43200"/>
</svg>
