<svg width="24" height="24" viewBox="0 0 24 24" fill="none" xmlns="http://www.w3.org/2000/svg">
<path fill-rule="evenodd" clip-rule="evenodd" d="M12 22C17.5228 22 22 17.5228 22 12C22 6.47715 17.5228 2 12 2C6.47715 2 2 6.47715 2 12C2 17.5228 6.47715 22 12 22ZM8.33 11.8301C8.33 12.6585 7.65843 13.3301 6.83 13.3301C6.00157 13.3301 5.33 12.6585 5.33 11.8301C5.33 11.0017 6.00157 10.3301 6.83 10.3301C7.65843 10.3301 8.33 11.0017 8.33 11.8301ZM13.4967 11.8301C13.4967 12.6585 12.8251 13.3301 11.9967 13.3301C11.1683 13.3301 10.4967 12.6585 10.4967 11.8301C10.4967 11.0017 11.1683 10.3301 11.9967 10.3301C12.8251 10.3301 13.4967 11.0017 13.4967 11.8301ZM17.1634 13.3301C17.9918 13.3301 18.6634 12.6585 18.6634 11.8301C18.6634 11.0017 17.9918 10.3301 17.1634 10.3301C16.3349 10.3301 15.6634 11.0017 15.6634 11.8301C15.6634 12.6585 16.3349 13.3301 17.1634 13.3301Z" fill="currentColor"/>
</svg>
