<svg width="24" height="24" viewBox="0 0 24 24" fill="none" xmlns="http://www.w3.org/2000/svg">
<path d="M15.8546 10.8354C16.2331 10.6671 16.4036 10.2239 16.2354 9.8454C16.0671 9.46688 15.6239 9.29641 15.2454 9.46464L15.8546 10.8354ZM11.5 11.95L10.9 12.4C11.1098 12.6797 11.4851 12.7774 11.8046 12.6354L11.5 11.95ZM8.05 6.1C7.80147 5.76863 7.33137 5.70147 7 5.95C6.66863 6.19853 6.60147 6.66863 6.85 7L8.05 6.1ZM12.25 2.95C12.25 2.53579 11.9142 2.2 11.5 2.2C11.0858 2.2 10.75 2.53579 10.75 2.95H12.25ZM10.75 4.75C10.75 5.16421 11.0858 5.5 11.5 5.5C11.9142 5.5 12.25 5.16421 12.25 4.75H10.75ZM12.25 18.25C12.25 17.8358 11.9142 17.5 11.5 17.5C11.0858 17.5 10.75 17.8358 10.75 18.25H12.25ZM10.75 20.05C10.75 20.4642 11.0858 20.8 11.5 20.8C11.9142 20.8 12.25 20.4642 12.25 20.05H10.75ZM2.95 10.75C2.53579 10.75 2.2 11.0858 2.2 11.5C2.2 11.9142 2.53579 12.25 2.95 12.25V10.75ZM4.75 12.25C5.16421 12.25 5.5 11.9142 5.5 11.5C5.5 11.0858 5.16421 10.75 4.75 10.75V12.25ZM18.25 10.75C17.8358 10.75 17.5 11.0858 17.5 11.5C17.5 11.9142 17.8358 12.25 18.25 12.25V10.75ZM20.05 12.25C20.4642 12.25 20.8 11.9142 20.8 11.5C20.8 11.0858 20.4642 10.75 20.05 10.75V12.25ZM19.75 11.5C19.75 16.0563 16.0563 19.75 11.5 19.75V21.25C16.8848 21.25 21.25 16.8848 21.25 11.5H19.75ZM11.5 19.75C6.94365 19.75 3.25 16.0563 3.25 11.5H1.75C1.75 16.8848 6.11522 21.25 11.5 21.25V19.75ZM3.25 11.5C3.25 6.94365 6.94365 3.25 11.5 3.25V1.75C6.11522 1.75 1.75 6.11522 1.75 11.5H3.25ZM11.5 3.25C16.0563 3.25 19.75 6.94365 19.75 11.5H21.25C21.25 6.11522 16.8848 1.75 11.5 1.75V3.25ZM15.2454 9.46464L11.1954 11.2646L11.8046 12.6354L15.8546 10.8354L15.2454 9.46464ZM12.1 11.5L8.05 6.1L6.85 7L10.9 12.4L12.1 11.5ZM10.75 2.95V4.75H12.25V2.95H10.75ZM10.75 18.25V20.05H12.25V18.25H10.75ZM2.95 12.25H4.75V10.75H2.95V12.25ZM18.25 12.25H20.05V10.75H18.25V12.25Z" fill="currentColor"/>
</svg>
