<svg width="24" height="24" viewBox="0 0 24 24" fill="none" xmlns="http://www.w3.org/2000/svg">
<path d="M22.8279 13.8197L20.7327 11.2175L20.6089 11.0708C20.5457 10.9925 20.4673 10.9287 20.3788 10.8832C20.2902 10.8377 20.1935 10.8117 20.0946 10.8066C19.9056 10.8089 19.7248 10.886 19.5898 11.0219L16.8565 13.7414C16.7888 13.8097 16.7351 13.8912 16.6984 13.981C16.6617 14.0709 16.6428 14.1674 16.6428 14.2648C16.6428 14.3622 16.6617 14.4587 16.6984 14.5486C16.7351 14.6384 16.7888 14.7199 16.8565 14.7882C16.9904 14.9256 17.172 15.0027 17.3613 15.0027C17.5506 15.0027 17.7321 14.9256 17.866 14.7882L19.1803 13.4479C18.8499 15.1546 17.9537 16.6909 16.6443 17.795C15.3349 18.8991 13.6934 19.5029 11.9994 19.5034C10.4855 19.4988 9.00987 19.0144 7.77406 18.1162C6.53825 17.218 5.6025 15.9498 5.09461 14.4849V14.4849H3.58984V14.5534C4.13014 16.4149 5.23983 18.048 6.75453 19.211C8.26922 20.3739 10.1083 21.0047 11.9994 21.0099C14.1014 21.005 16.1308 20.2198 17.7137 18.799C19.2425 17.4065 20.2525 15.5114 20.5708 13.4382L21.6851 14.7686C21.8082 14.9172 21.982 15.0117 22.1708 15.0327H22.2375C22.4042 15.0346 22.5662 14.9757 22.6946 14.8664C22.7706 14.8069 22.8344 14.7326 22.8822 14.6476C22.9301 14.5627 22.9611 14.4689 22.9735 14.3716C22.9859 14.2743 22.9794 14.1754 22.9545 14.0807C22.9295 13.986 22.8865 13.8973 22.8279 13.8197V13.8197Z" fill="currentColor"/>
<path d="M3.9532 13.1935C4.14257 13.1933 4.32413 13.1159 4.45796 12.9783L7.14367 10.2294C7.27576 10.0889 7.34959 9.90129 7.34959 9.70601C7.34959 9.51073 7.27576 9.32309 7.14367 9.18264C7.00694 9.04696 6.82426 8.97113 6.63415 8.97113C6.44403 8.97113 6.26135 9.04696 6.12462 9.18264L4.81986 10.5229C5.14888 8.81629 6.04501 7.28019 7.35492 6.17737C8.66484 5.07455 10.3071 4.47355 12.0008 4.47721C13.5137 4.48093 14.9885 4.96522 16.2229 5.86367C17.4574 6.76212 18.3911 8.03077 18.8961 9.49569V9.49569H20.4008V9.42721C19.8593 7.56916 18.7503 5.93929 17.2377 4.7784C15.7251 3.61751 13.889 2.98716 12.0008 2.98047C9.89927 2.98803 7.8707 3.77289 6.28653 5.19134C4.7577 6.58386 3.74768 8.47897 3.42939 10.5522L2.34367 9.21199C2.22141 9.0631 2.04716 8.96944 1.85837 8.95115C1.66959 8.93286 1.48136 8.99139 1.33415 9.11416C1.18857 9.24146 1.09715 9.42212 1.07936 9.61765C1.06157 9.81317 1.11882 10.0081 1.23891 10.1609L3.47701 12.9098C3.54023 12.988 3.6186 13.0519 3.70713 13.0974C3.79566 13.1429 3.89243 13.1689 3.99129 13.1739L3.9532 13.1935Z" fill="currentColor"/>
</svg>
