<svg width="24" height="24" viewBox="0 0 24 24" fill="none" xmlns="http://www.w3.org/2000/svg">
<path fill-rule="evenodd" clip-rule="evenodd" d="M17.9102 14.75C17.7402 14.94 17.4402 15.05 17.0002 15.05C16.2402 15.05 15.0002 14.82 14.0002 14.31C12.2802 14.5 11.0002 14.73 9.97019 15.06C9.9516 15.0675 9.93164 15.0749 9.91028 15.0829L9.91018 15.0829L9.91015 15.0829L9.91007 15.0829C9.87404 15.0964 9.83408 15.1112 9.79019 15.13C8.55019 17.25 7.63019 18.2 6.82019 18.2C6.66019 18.2 6.50019 18.16 6.38019 18.09L5.90019 17.78L5.87019 17.73C5.80019 17.55 5.78019 17.38 5.82019 17.19C5.93019 16.66 6.50019 15.82 7.70019 15.07C7.89019 14.93 8.19019 14.77 8.59019 14.58C8.89019 14.06 9.21019 13.45 9.55019 12.78C10.0602 11.75 10.3802 10.73 10.6302 9.85005V9.84005C10.2602 8.63005 10.0402 7.90005 10.4102 6.57005C10.5002 6.19005 10.8302 5.80005 11.2002 5.80005H11.4402C11.6702 5.80005 11.8902 5.88005 12.0502 6.04005C12.7102 6.70005 12.4002 8.31005 12.0702 9.64005C12.0585 9.67519 12.0502 9.70691 12.0433 9.73318L12.0433 9.73319L12.0433 9.73322C12.0385 9.75178 12.0343 9.76763 12.0302 9.78005C12.4302 10.91 13.0002 11.82 13.6302 12.34C13.8902 12.54 14.1802 12.74 14.5002 12.92C14.9502 12.87 15.3802 12.85 15.7902 12.85C17.0302 12.85 17.7802 13.07 18.0702 13.54C18.1702 13.7 18.2202 13.89 18.1902 14.09C18.1802 14.34 18.0902 14.57 17.9102 14.75ZM11.4302 10.94C11.2002 11.68 10.8702 12.47 10.4202 13.34C10.3755 13.425 10.3298 13.5089 10.2849 13.5914C10.1289 13.878 9.98231 14.1471 9.92019 14.38L10.0302 14.34C11.3002 13.85 12.5002 13.57 13.3702 13.41C13.2202 13.31 13.0802 13.2 12.9602 13.09C12.3602 12.58 11.8402 11.84 11.4302 10.94ZM15.6002 13.69C17.0002 13.69 17.4002 13.94 17.5002 14.04C17.5415 14.0731 17.5623 14.1062 17.5796 14.1336L17.5796 14.1336C17.5818 14.137 17.5838 14.1403 17.5859 14.1435C17.5873 14.1457 17.5888 14.1479 17.5902 14.15C17.5804 14.248 17.5514 14.2596 17.5032 14.2788L17.5002 14.28H17.4602C17.4002 14.29 17.3402 14.3 17.2702 14.3C16.8102 14.3 16.1002 14.11 15.3702 13.79C15.4602 13.69 15.5302 13.69 15.6002 13.69ZM8.33019 15.5C8.12019 15.62 7.95019 15.73 7.85019 15.81C7.14019 16.46 6.69019 17.12 6.64019 17.5C7.09019 17.35 7.68019 16.69 8.33019 15.5ZM11.4002 8.55005L11.3502 8.59005C11.1202 7.69005 11.1102 6.96005 11.2802 6.54005C11.3002 6.50005 11.3302 6.45005 11.3502 6.42005L11.5002 6.47005C11.6702 6.71005 11.6902 7.00005 11.5902 7.57005L11.5602 7.73005C11.5272 7.85085 11.5033 7.98973 11.4769 8.14339C11.4552 8.26959 11.4318 8.40575 11.4002 8.55005Z" fill="#E4001C"/>
<path d="M19 2.5H5C3.61386 2.5 2.5 3.61386 2.5 5V19C2.5 20.3807 3.61929 21.5 5 21.5H19C20.3807 21.5 21.5 20.3807 21.5 19V5C21.5 3.61223 20.3745 2.5 19 2.5Z" stroke="#E4001C"/>
</svg>
