<svg width="24" height="24" viewBox="0 0 24 24" fill="none" xmlns="http://www.w3.org/2000/svg">
<path d="M2.0169 10.9263C1.70006 11.1931 1.65951 11.6663 1.92632 11.9831C2.19313 12.2999 2.66627 12.3405 2.9831 12.0737L2.0169 10.9263ZM12 3.5L12.4831 2.92632C12.2039 2.69123 11.7961 2.69123 11.5169 2.92632L12 3.5ZM21.0169 12.0737C21.3337 12.3405 21.8069 12.2999 22.0737 11.9831C22.3405 11.6663 22.2999 11.1931 21.9831 10.9263L21.0169 12.0737ZM3.75 10V19.6205H5.25V10H3.75ZM5.4 21.25H18.6V19.75H5.4V21.25ZM20.25 19.6205V10H18.75V19.6205H20.25ZM18.6 21.25C19.4949 21.25 20.25 20.5366 20.25 19.6205H18.75C18.75 19.6758 18.6992 19.75 18.6 19.75V21.25ZM3.75 19.6205C3.75 20.5366 4.50512 21.25 5.4 21.25V19.75C5.30077 19.75 5.25 19.6758 5.25 19.6205H3.75ZM8.75 14.3795V20.831H10.25V14.3795H8.75ZM10.4 14.25H13.6V12.75H10.4V14.25ZM13.75 14.3795V20.831H15.25V14.3795H13.75ZM13.6 14.25C13.6992 14.25 13.75 14.3242 13.75 14.3795H15.25C15.25 13.4634 14.4949 12.75 13.6 12.75V14.25ZM10.25 14.3795C10.25 14.3242 10.3008 14.25 10.4 14.25V12.75C9.50511 12.75 8.75 13.4634 8.75 14.3795H10.25ZM2.9831 12.0737L12.4831 4.07368L11.5169 2.92632L2.0169 10.9263L2.9831 12.0737ZM11.5169 4.07368L21.0169 12.0737L21.9831 10.9263L12.4831 2.92632L11.5169 4.07368Z" fill="currentColor"/>
</svg>
