<svg width="24" height="24" viewBox="0 0 24 24" fill="none" xmlns="http://www.w3.org/2000/svg">
<path fill-rule="evenodd" clip-rule="evenodd" d="M12 22C17.5228 22 22 17.5228 22 12C22 6.47715 17.5228 2 12 2C6.47715 2 2 6.47715 2 12C2 17.5228 6.47715 22 12 22ZM12 9C11.1548 9 10.5 9.66855 10.5 10.4561C10.5 11.0084 10.0523 11.4561 9.5 11.4561C8.94772 11.4561 8.5 11.0084 8.5 10.4561C8.5 8.53075 10.0838 7 12 7C13.9162 7 15.5 8.53075 15.5 10.4561C15.5 12.0017 14.46 13.4014 13 13.8503V14.25C13 14.8023 12.5523 15.25 12 15.25C11.4477 15.25 11 14.8023 11 14.25V13C11 12.4477 11.4477 12 12 12C12.7999 12 13.5 11.2893 13.5 10.4561C13.5 9.66855 12.8452 9 12 9ZM13 17C13 17.5523 12.5523 18 12 18C11.4477 18 11 17.5523 11 17C11 16.4477 11.4477 16 12 16C12.5523 16 13 16.4477 13 17Z" fill="currentColor"/>
</svg>
